<?xml version="1.0" encoding="UTF-8"?>
<svg xmlns="http://www.w3.org/2000/svg" version="1.1" xmlns:cc="http://creativecommons.org/ns#" xmlns:dc="http://purl.org/dc/elements/1.1/" xmlns:inkscape="http://www.inkscape.org/namespaces/inkscape" xmlns:rdf="http://www.w3.org/1999/02/22-rdf-syntax-ns#" xmlns:sodipodi="http://sodipodi.sourceforge.net/DTD/sodipodi-0.dtd" xmlns:svg="http://www.w3.org/2000/svg" xmlns:xlink="http://www.w3.org/1999/xlink" viewBox="0 0 400 400">
  <defs>
    <style>
      .cls-1 {
        fill: #27409b;
      }

      .cls-2 {
        fill: #292d6b;
      }

      .cls-3 {
        fill: #c4122e;
      }

      .cls-4 {
        fill: #1b458f;
      }

      .cls-5 {
        fill: #fff;
      }

      .cls-6 {
        fill: none;
      }

      .cls-7 {
        fill: #f4f4f4;
      }

      .cls-8 {
        fill: #d3d2d2;
      }

      .cls-9 {
        fill: #a7a5a6;
      }

      .cls-10 {
        clip-path: url(#clippath);
      }
    </style>
    <clipPath id="clippath">
      <rect class="cls-6" x="217.4" y="86.9" width="1.3" height="8.1"/>
    </clipPath>
  </defs>
  <!-- Generator: Adobe Illustrator 28.7.1, SVG Export Plug-In . SVG Version: 1.2.0 Build 142)  -->
  <g>
    <g id="Layer_1">
      <g>
        <g id="g108">
          <path id="path110" class="cls-5" d="M142.6,314.9s-44-22.1-65.4-55.9c0,29.1-1.3,65.4-1.3,65.4l67.3,13.2-.6-22.7h0Z" inkscape:connector-curvature="0"/>
        </g>
        <g id="g112">
          <path id="path114" class="cls-5" d="M258.8,315.4s44-20.3,65.4-54.2c-.1,29.1,1.3,63,1.3,63l-67.3,13.2.6-22.1h0Z" inkscape:connector-curvature="0"/>
        </g>
        <path id="path116" class="cls-5" d="M259.3,357.9h-117v-53.4h117v53.4Z" inkscape:connector-curvature="0"/>
        <g id="g118">
          <path id="path120" class="cls-5" d="M235.6,308.4c0,18.9-15.5,34.3-34.7,34.3s-34.7-15.4-34.7-34.3,15.5-34.3,34.7-34.3,34.7,15.4,34.7,34.3" inkscape:connector-curvature="0"/>
        </g>
        <g id="g122">
          <path id="path124" class="cls-5" d="M61,326.4v-50.1l-3-1.1v-6.8l3-1.3v-4.7l-3-1.1v-8.1l9.8-9.3v-2.2s.3-1.9,2.8-1.9h2.9s2.3.3,2.3,1.9v2.1l10.1,9.5v8.1l-3.1,1.1v4.7l3.1,1.3v53.2l-24.9,4.8h0Z" inkscape:connector-curvature="0"/>
        </g>
        <g id="g126">
          <path id="path128" class="cls-5" d="M341.6,326.4v-50.1l3-1.1v-6.8l-3-1.3v-4.7l3-1.1v-8.1l-9.8-9.3v-2.2s-.3-1.9-2.8-1.9h-2.9s-2.3.3-2.3,1.9v2.1l-10.1,9.5v8.1l3.1,1.1v4.7l-3.1,1.3v53.2l24.9,4.8h0Z" inkscape:connector-curvature="0"/>
        </g>
        <g id="g130">
          <path id="path132" class="cls-5" d="M197.8,396.7c-24.3,0-39.9-8.3-56.3-17.1-8.7-4.6-17.7-9.5-28.2-13-29.8-10-49.5,2.3-50.3,2.8l-4-6.1c.9-.6,23.3-14.8,56.6-3.6,11.1,3.7,20.4,8.7,29.3,13.5,16.9,9.1,32.9,17.6,59.1,16.1,24.6-1.5,41.5-9.8,57.8-17.9,7-3.4,13.5-6.7,20.5-9.3.5-.2,1-.4,1.6-.6,8.7-3.5,35.3-14,58.3,3.5l-4.4,5.8c-19.7-15-42.6-6-51.2-2.6-.6.3-1.2.5-1.7.7-6.6,2.5-13.1,5.7-19.8,9-16.2,8-34.6,17.1-60.6,18.7-2.3.1-4.6.2-6.8.2" inkscape:connector-curvature="0"/>
        </g>
        <g id="g134">
          <path id="path136" class="cls-5" d="M328.1,383.4l-5.2-3.3c-1.2-.7-4.2-1.2-7.3-.7-.5,0-1.1.2-1.7.3-2.6.6-5.8,1.3-8.3-.7-1-.8-2.3-2.4-2.3-5.3s1-4.2,2.7-5.6c5.7-4.4,19.7-1.3,23.9-.3,2.8.8,5.8.7,6.4.2,1.4-15.8,7.8-27.2,11.4-32.5-25.9-15.7-65.5-7.1-80.4,2.3-22.1,14.1-40.6,22.9-64.2,23-20.1,0-37.1-8.3-55.1-17.1-10.1-4.9-20.5-10-31.9-13.9-24.1-8.1-51.5,1-61.9,5.2,3.9,5.3,9.8,15.8,10.4,30.7.6.7,3.6.9,6.3.3,4.3-.9,18.4-3.3,23.9,1.4,1.7,1.4,2.6,3.5,2.4,5.7,0,2.9-1.4,4.5-2.5,5.2-2.6,1.9-5.8,1-8.4.3-.6-.1-1.1-.3-1.7-.4-3.1-.6-6.1-.3-7.3.4l-5.3,3.1-.2-8.5c-2.1.4-8,1.2-11.7-1.6-1.8-1.4-2.8-3.3-2.9-5.6-.8-19.1-11.5-29.7-11.6-29.8l-3.7-3.6,4.6-2.3c1.6-.8,38.6-18.5,71.7-7.4,11.9,4,22.5,9.2,32.8,14.2,17.1,8.4,33.3,16.3,51.7,16.3h.2c21.8,0,39.3-8.4,60.3-21.9,17.4-11.1,62.9-20.6,91.6,0l3.3,2.3-2.6,3c-.1.1-10.4,12.3-12.2,31.5-.2,2.3-1.3,4.2-3.1,5.5-3.8,2.6-9.6,1.5-11.8,1l-.6,8.4.3.2Z" inkscape:connector-curvature="0"/>
        </g>
        <g id="g138">
          <path id="path140" class="cls-5" d="M94.5,367.5s-3.6-3.6-5.1-6.3c-3-5.3-26.4,5.2-26.4,5.2l6.4,1.4" inkscape:connector-curvature="0"/>
        </g>
        <g id="g142">
          <path id="path144" class="cls-5" d="M305.3,368.9s3.7-3.6,5.3-6.2c3.1-5.2,26.3,5.8,26.3,5.8l-6.4,1.2" inkscape:connector-curvature="0"/>
        </g>
        <g id="g146">
          <path id="path148" class="cls-5" d="M60.3,367.8s-.5-14.4-3.7-20.8-4.5-12.8-4.5-12.8c0,0,19.6-9.9,32.4-10.1,12.8-.2,44.6,5.3,54.5,10.7,9.9,5.5,36.6,20.1,50.5,23.1,13.9,3,36.7-.6,51.1-6.5,14.3-5.9,23.9-16,29.7-18.6,5.8-2.6,24.5-9.3,37.1-10.5,12.6-1.1,27.7,4,36.3,5.6,8.5,1.6,7.3,4.8,7.3,4.8l-10.3,32.7s-16.4-5.6-27.4-5.9-29.7,8-35.5,10.1c-5.8,2.2-31.3,12.8-39.5,16s-36,10.6-51.8,7.1-46.5-19.1-54.6-23.1c-8-4-37.1-13.6-40.9-11.7-3.9,1.8-30.5,9.7-30.5,9.7" inkscape:connector-curvature="0"/>
        </g>
        <g id="g150">
          <path id="path152" class="cls-5" d="M220.6,246.5h.2l-1,.2.8-.3h0ZM334.2,55.9c-.6-1.8-3.6-3.2-15.9-3.2s-9.2.2-9.3.2h-.6c-7.6.6-14.8,2.3-21.4,5.1,8.7-10.5,22.2-17,30.4-20.2.4-.2,1.6-.7,1.9-1.1.4-.6,1.1-1.2.5-2.2-1-1.7-4.7-2.2-7.1-2.2s-6.5.4-11.2,1.1c-2.3.3-4.5.6-6.6,1.1h-.3c-9.4,2.1-18.3,6.3-25.7,12.2-1,.8-2,1.7-3,2.6l6-10.2c3.2-5.3,6.7-10.2,10.4-14.5.3-.3.4-.6.5-1,.1-.7,1-1.9.5-2.5-.3-.4-1-1-2.2-1s-4.7.4-18.4,10.8c-12.9,9-24,20.7-32.1,33.9-3.2,5.8-8.9,16.6-10.8,24.2-.1-.8-.2-1.5-.3-2.3-.3-3-.5-6.2-.6-10,0-4.5.1-8.5.3-11.1,0-1.1-.1-3.6-1.2-3.9-1.1-.3-2.7,1.8-3.1,2.8-6.7,15.4-8.5,28.1-8.8,35.8l-2.5,22.4c-.3,1.5-1.4,9-1.4,9-1.9-3.2-3.2-5.6-4.6-9.2,0,0-.1-.2-.2-.3l-2.1-3.4s-.1-.2-.2-.3c-3.2-3.8-6.4-5.8-10.2-8-5.3-3.2-11.8-7.1-21.5-18.4-5.4-6.2-11.6-18.7-13.6-27.4-4-17.1-3.6-37.5,1-55.9.4-1.2.7-3.5.2-4.2-.4-.6-1.2-1-1.9-1-1.4,0-2.7,1.3-11.7,15.5h0c-5.9,9.5-10,20.2-12,31.1-.4,2.4-.8,4.8-1,7.1-2.1-5.2-3.8-10.5-5.1-16-2.9-11.7-3.8-23.6-2.7-34.4,0-.7.2-2.5-.3-2.9s-1.1-.7-1.8-.7c-2,0-5,2.5-11.3,19.4-6,16.1-7.9,30.8-6.1,46.9-6.8-8.9-9.9-21.4-12.7-32.6-.7-2.8-1.4-5.5-2.1-8.2-.4-1.3-1.3-4.5-2.5-3.9,0,0-.2,0-.2.1h0c0,.1,0,.1-.2.2-.2.2-1.1,3-1.3,3.3-.4.7-.6,1.8-.8,3.3v3.5c-.8,8.4-1.5,30.3,9.8,53.1l.3.6c0,.3.3.7.5,1,1.2,2.6,2.6,4.9,3.9,7.2.4.8.9,1.5,1.3,2.2,1.5,2.7,2.9,4.4,4.3,6-6.3-1.3-15.7-3.2-20.2-3.8-1,0-2,.4-2.4,1.4s0,2.1.9,2.7c3.8,2.5,10.6,8.7,17.8,15.4h0l12.8,11.9,1.2,1.1c4.2,3.9,8.5,8,12.7,11.8l-8.8-.9c-1-.1-1.9.5-2.3,1.4s0,2,.7,2.6l20.4,16.5h0l8.9,7.1.2.2,15.3,12.3c.4.3.8.5,1.3.5h3.9c-8.3,3.6-15.9,3.7-24.8.7-6.9-2.3-13.4-5.9-19-10.4-.8-.6-2.8-1.8-3.6-1.2-.8.6-.2,2.9.2,3.8,1.7,4.3,4.9,8,8.2,11.4-10.6-1.4-20.2-4.3-31.2-9.3-.9-.4-2.6-1.5-3.2-.7s0,3.1.4,4c5,7.7,8.9,13,12.9,17.1,4.2,4.3,9.6,8.8,12.3,10.4.5.3,1.9,1.1,8.5,1.1s5.2-.1,7.6-.3h.8c-6.6,2.3-12.6,3.2-17.8,2.5-1.1-.2-3.7,0-4,1-.3,1.1,1.9,2.9,2.9,3.3,7.8,2.8,15.5,4.7,22.8,5.7,2.4.7,9.3,2.5,16.7,3.1h1.4c.6,0,1.2.1,1.8.2,2.8.3,5.5.5,8.4.5s4.7-.2,7.1-.6c0,.3,0,.6.2.8l1.3,2.5c-.5,0-.9.3-1.3.7-.6.7-.8,1.7-.3,2.6l2.8,5.2c0,.1.1.2.2.3,0,0,0,.1.2.2-.1,0-.2.1-.3.2-.8.5-1.1,1.5-.9,2.4,1.4,5.8,4.2,7.8,6.3,9.3,1.4,1,2.2,1.6,2.7,3.2.3,1,.8,2.2,1.3,3.5,1.1,2.6,2.7,6.6,1.7,8.2-1.3,2.1-2.3,2.8-3.8,3.8-1,.6-2.1,1.4-3.6,2.7-3.5,3.1-3.7,7.3-.7,12.3l.2.3c.5.8,1.4,1.2,2.3,1.1.9-.2,1.6-.9,1.8-1.8.7-3.6,6.6-6.4,7.7-6.5,2-.1,3.9-.3,5.2-1.6,2.1-2.1,13.7-2.3,13.7-2.3,0,0,1.4,0,3.5.5.4.2.8.4,1.2.6s.8.4,1.2.3c.3,0,4.1,1.6,4.5,1.9.6.7,7.1,4.3,7.9,4.7s4.3,5.3,4.8,5.3c.9,1.3,1.2.9,1.2-.4,2.5-1.5,4.7-4.7,5.6-8.2.9-3.5.3-6.8-1.5-9.6-.1-.2-.2-.3-.4-.4-.4-.4-1.4-1.2-2.6-2.1-1.6-1.3-4.3-3.4-4.9-4-1.6-1.9-2.4-3.9-3.2-6.2.6,0,1.2-.3,1.6-.8.4-.5.6-1.2.4-1.9l-.3-1.3c-.5-2-1-4.2-1.4-6.6h0c0-.1.2-.1.3-.1s0,0,0,0c1.2,0,2.2-1,2.2-2.2s-.1-.8-.3-1.1l-2.5-6.7c.2.3.4.4.5.5.6.6,2.1,1.7,2.9,1.4.8-.3.9-1.9.9-2.8.3-4.4,3.7-8.9,7.4-11.6.2.6.4,1,.5,1.1.4.7.4,2.4,1.3,2.4s0,0,0,0c.8,0,1.5-1.2,2.7-2.4,1.5-1.6,2.8-3,4.4-3.4l7.7,3.1c.5,1.4,1.4,3.6,3.1,5,1.4,1.2,2.8,2,5.4,3.7.3.2.6.3.9.5-.2.1-.5.2-.8.3-.9.3-3.4,1.1-3.4,2.1s2.5,1.8,3.4,2.1c1.7.6,3.6,1,5.4,1,3.8,0,7.1-1.4,9.1-3.7,1.6-1.9,2.3-4.4,1.8-7.1-.3-2-1.1-7-1.4-8.6l2.1-6.8v-.7c0-3.2-.9-6.8-2.7-10.7v-.3c-.2-.3-.3-.5-.5-.7,0-.2-.2-.4-.3-.5-.5-1.1-1.1-2.1-1.8-3.3-5.5-9.1-13.3-16.5-13.7-16.8-.7-.6-2-1.7-2.8-1.3s-1,2.2-.9,3.1v.5c-.5-1.3-2.6-3.4-3-4.1-1-1.5-1.7-3-2-4.1,6.6-30.6,26.9-51,27.1-51.2.4-.4.6-.8.6-1.4,4.4-43.8,54.4-63.1,54.9-63.2.2,0,1.5-.5,1.6-.6,1.7-1.3,2-2.3,1.9-2.7" inkscape:connector-curvature="0"/>
        </g>
        <g id="g154">
          <path id="path156" class="cls-2" d="M197.9,394.4c-23.9,0-39.2-8.2-55.3-16.9-8.8-4.7-17.8-9.5-28.5-13.1-31-10.4-51.9,2.9-52.1,3l-1.7-2.6c.9-.6,22.4-14.2,54.8-3.3,11,3.7,20.1,8.6,29,13.3,17.2,9.2,33.4,17.9,60.3,16.3,25-1.5,42.1-9.9,58.6-18.1,6.9-3.4,13.4-6.7,20.3-9.2.5-.2,1-.4,1.6-.6,9.4-3.7,34.3-13.5,56.3,3.3l-1.9,2.5c-20.6-15.7-44.3-6.4-53.2-2.8-.6.2-1.2.5-1.7.6-6.7,2.5-13.2,5.7-20,9.1-16,7.9-34.2,16.9-59.8,18.4-2.3.1-4.5.2-6.6.2" inkscape:connector-curvature="0"/>
        </g>
        <g id="g158">
          <path id="path160" class="cls-4" d="M194.6,369.8h-.7l-.2,5.2h.6c1.9,0,3-.7,3-2.5s-.9-2.6-2.8-2.6" inkscape:connector-curvature="0"/>
        </g>
        <g id="g162">
          <path id="path164" class="cls-4" d="M210.3,376.5l3.5-.5-2.6-5.8-1,6.3h.1Z" inkscape:connector-curvature="0"/>
        </g>
        <g id="g166">
          <path id="path168" class="cls-4" d="M158.2,367.4l1.2-6.2-4.4,4.6,3.2,1.6Z" inkscape:connector-curvature="0"/>
        </g>
        <g id="g170">
          <path id="path172" class="cls-4" d="M94.7,335.9h-1.2l-.3,5.1h1.2c1.9.2,2.9-.7,3-2.4,0-1.6-.9-2.6-2.7-2.7" inkscape:connector-curvature="0"/>
        </g>
        <g id="g174">
          <path id="path176" class="cls-4" d="M244.7,366.9l3.3-1.5-4.1-4.9.9,6.3h0Z" inkscape:connector-curvature="0"/>
        </g>
        <g id="g178">
          <path id="path180" class="cls-4" d="M330.2,353.4c-1.5.1-2.8-1-2.9-2.5s1-2.8,2.5-2.9,2.8,1,2.9,2.5-1,2.8-2.5,2.9M325.9,338c-.9-.9-2.1-1.7-3.6-1.8-2.6-.3-4.6,1.5-4.9,4.8-.4,3.4,1.3,5.5,4,5.8,1.3.1,2.6-.2,4-.8l.2,4.7c-1.6.6-3.3.9-5.6.7-5.9-.6-9-4.8-8.3-10.9.6-6,4.8-9.6,10.8-8.9,2,.2,3.5.8,4.8,1.6l-1.3,4.9h-.1ZM307.8,350.8c-1.5.1-2.8-1-2.9-2.5s1-2.8,2.5-2.9,2.8,1,2.9,2.5-1,2.8-2.5,2.9M299.8,351.9l-5.6,1.2-4-19,12-2.5,1,4.6-6.4,1.3.6,3.1,4.6-1,1.7,4.4-5.4,1.1,1.4,6.7h0ZM274.9,360.7l-7.3-17.9,11.8-4.8,1.7,4.2-6.6,2.7,1,2.6,5-2,2.3,3.9-5.7,2.3,1.2,2.9,6.9-2.8,1.7,4.2-12.1,4.9v-.2ZM268,364.4c-5.3,2.6-10.2.7-12.9-4.8-2.6-5.4-1-10.7,4.4-13.3,1.8-.9,3.4-1.2,4.9-1.2l1.5,4.9c-1.3-.3-2.6-.3-4,.4-2.4,1.2-3.1,3.7-1.6,6.7s4,3.9,6.4,2.8c1.2-.6,2.1-1.5,3-2.9l2.7,3.9c-1.1,1.4-2.3,2.6-4.4,3.6M253.3,371.4l-2.4-2.7-5.6,2.5.5,3.4-5.1,2.3-1.9-20.5,5.9-2.6,13.6,14.4-4.9,3.2h-.1ZM227,381.3l-5.7-18.5,5.5-1.7,4.3,13.8,5.2-1.6,2.2,4.4-11.5,3.5h0ZM217.3,383.5l-1.6-3.3-6,.8-.5,3.4-5.5.8,4-20.2,6.4-.9,8.9,17.7-5.6,1.7h0ZM194.6,379h-.9l-.2,5.8-5.7-.2.6-19.4,6.7.2c5,.2,8,2.4,7.8,6.9-.2,4.6-3.5,6.8-8.4,6.7M176.9,382.8l-11.4-3.7,5.9-18.4,5.5,1.8-4.5,13.8,5.2,1.7-.8,4.9h.1ZM162.5,377.3l-5.6-1.8.5-3.6-5.4-2.7-2.3,2.5-5-2.5,14.7-14.4,5.7,2.9-2.7,19.6h.1ZM136.2,364.4l6.8-12.9-4.6-2.4,2.2-4.2,13.8,7.2-1.5,4.6-4.8-2.5-6.8,12.9-5.1-2.7h0ZM130.3,347.9c3.5,3.1,4.5,5.2,3.3,8.1-1.8,4.2-5.6,4.5-9.2,2.9-2.6-1.1-4.5-2.6-6.2-4.3l2.6-4c1.6,1.9,3.6,3.5,5.3,4.3,1,.4,1.9.4,2.2-.4.3-.7,0-1.3-2-3.2-3.1-2.8-4.2-4.7-2.9-7.9,1.6-3.7,5.2-4.3,8.7-2.8,2.6,1.1,4,2.2,5.4,3.8l-2.6,3.9c-1.4-1.8-3-3.1-4.4-3.7-1.1-.5-1.7-.3-2,.3-.3.7,0,1.2,1.7,2.8M112.8,354.4l-5.5-1.5,1.8-6.6-3.2-13.3,6.1.9,1.6,8.1,5.3-6.1,5.8,1.6-10,10.2-1.8,6.7h-.1ZM97.1,351.4l-3.2-6.4h-.9l-.4,5.9-5.7-.3,1.2-19.3,7.4.4c5,.3,7.7,2.7,7.5,6.8-.2,2.6-1.4,4.4-3.7,5.4l3.9,6.9s-6.1.6-6.1.6ZM79.3,351.9c-5.8,1.1-10-1.9-11.2-8-1.1-5.9,1.8-10.6,7.7-11.7,1.9-.4,3.6-.3,5.1.2l.2,5.1c-1.2-.6-2.5-1-4-.7-2.6.5-4,2.8-3.3,6,.6,3.3,2.8,4.9,5.5,4.4,1.3-.3,2.4-.9,3.6-2l1.6,4.4c-1.4,1.1-2.9,1.9-5.2,2.3M265.5,334.9c-21.9,14-39.8,22.4-62.2,22.4-30.4.1-53.9-20-85.9-30.8-32-10.8-68.9,7.2-68.9,7.2,0,0,11.8,11.5,12.7,32.3,0,0,21.4-13.9,53.4-3.2,32,10.8,48.6,32.2,89.9,29.7,35.9-2.2,56.3-18.8,79.4-27.5,7.2-2.7,33.5-15,56.3,2.4,2.1-20.3,13-32.8,13-32.8-27.3-19.5-71.5-10.1-87.6.2" inkscape:connector-curvature="0"/>
        </g>
        <g id="g182">
          <path id="path184" class="cls-3" d="M81.4,372.9c1.6,0,3.2.2,4.5.5.6.1,1.3.3,2,.5,1.4.4,3.4.9,4,.5.2-.2.4-.6.4-1.3s-.2-1.1-.7-1.5c-2.2-1.9-8.8-1.8-14.5-1.1v3c1.4-.4,2.9-.5,4.3-.5M315.2,370.9c-2.6,0-4.8.3-5.9,1.2-.5.4-.7.9-.7,1.5s.1,1.2.3,1.3c.6.5,2.6,0,4-.3.7-.1,1.3-.3,2-.4,2.5-.4,5.9-.4,8.7.5l.2-3c-2.8-.5-5.9-.8-8.6-.8M326.3,379.8l-2.1-1.4c-1.8-1.1-5.5-1.6-8.8-1-.6,0-1.2.2-1.8.4-2.4.5-4.8,1.1-6.5-.3-1-.8-1.5-2-1.5-3.7s.6-2.9,1.9-3.9c5.2-4,20.3-.3,22,0,1.5.4,6.1,1.3,8.1-.1.6-.4.8-.9.9-1.7,1.6-17.4,9.5-29.3,12.4-33.1-26.3-17.5-68.2-8.9-84.6,1.2-18.7,11.4-39,22.6-63,22.7h-.3c-19.5,0-36.2-8.2-53.9-16.8-10.1-5-20.6-10.1-32.2-14-27.1-9.1-58.1,2.9-65.9,6.3,3.3,3.9,10.9,14.8,11.7,31.7,0,.8.3,1.3.8,1.7,1.9,1.5,6.6.8,8.1.5,1.8-.4,17.1-3.3,22,1,1.2,1,1.8,2.4,1.7,4,0,1.7-.6,2.9-1.6,3.6-1.8,1.3-4.2.6-6.6,0-.6-.2-1.2-.3-1.8-.4-3.3-.7-7-.4-8.8.6l-2.2,1.3-.2-7.4c-.7.1-1.3.2-1.9.4-.7.2-7.1,1.5-10.5-1.1-1.3-1-2-2.3-2-4-.9-19.9-12.1-31.1-12.2-31.3l-1.5-1.5,1.9-.9c1.5-.8,37.8-18.1,70.1-7.3,11.8,4,22.3,9.1,32.6,14.1,17.4,8.5,33.8,16.5,52.6,16.5h.3c21,0,39.1-8.6,61.5-22.2,17.3-10.6,62-19.6,89.2-.1l1.3,1-1.1,1.2c0,.1-10.9,12.8-12.7,32.7-.2,1.7-.9,3-2.2,3.9-3.5,2.4-9.9.8-10.6.6-.6-.1-1.2-.3-1.9-.4l-.5,7.4-.2-.2Z" inkscape:connector-curvature="0"/>
        </g>
        <g id="g186">
          <path id="path188" class="cls-3" d="M197.9,394.5c-23.8,0-39.2-8.2-55.3-16.9-8.8-4.7-17.8-9.5-28.5-13.1-30.9-10.4-51.9,2.9-52.1,3l-1.6-2.5c.9-.6,22.4-14.2,54.7-3.3,11,3.7,20.1,8.6,29,13.3,17.2,9.2,33.4,17.9,60.3,16.3,25-1.5,42.1-10,58.6-18.1,6.9-3.4,13.4-6.7,20.3-9.2.5-.2,1-.4,1.6-.6,9.4-3.7,34.2-13.5,56.2,3.3l-1.8,2.4c-20.7-15.7-44.4-6.4-53.3-2.8-.6.2-1.2.5-1.7.7-6.7,2.5-13.2,5.7-20,9.1-16,7.9-34.2,16.9-59.8,18.4-2.3.1-4.5.2-6.6.2" inkscape:connector-curvature="0"/>
        </g>
        <g id="g190">
          <path id="path192" class="cls-3" d="M92.1,371.9c-7.2-5.9-10.1-11.7-10.2-11.9l2.7-1.3s2.7,5.4,9.4,10.9l-1.9,2.3Z" inkscape:connector-curvature="0"/>
        </g>
        <g id="g194">
          <path id="path196" class="cls-3" d="M308.9,372.5l-1.8-2.4c7.8-5.7,8.7-11.7,8.7-11.8l3,.4c0,.3-1.1,7.4-10,13.8" inkscape:connector-curvature="0"/>
        </g>
        <g id="g198">
          <path id="path200" class="cls-1" d="M234.8,212.7l.6.6s0-.3-.6-.6" inkscape:connector-curvature="0"/>
        </g>
        <g id="g202">
          <path id="path204" class="cls-1" d="M218.7,95.2c-.5-2.2-1-5-1.3-8.1.3,2.6.7,5.3,1.3,8.1" inkscape:connector-curvature="0"/>
        </g>
        <g id="g206">
          <g class="cls-10">
            <g id="g208">
              <g id="g214">
                <path id="path216" class="cls-5" d="M218.7,95.2c-.5-2.2-1-5-1.3-8.1.3,2.6.7,5.3,1.3,8.1" inkscape:connector-curvature="0"/>
              </g>
            </g>
          </g>
        </g>
        <g id="g220">
          <g id="g226">
            <path id="path228" class="cls-7" d="M240.5,177.2c0-.5,0,0,0,0" inkscape:connector-curvature="0"/>
          </g>
          <g id="g230">
            <path id="path232" class="cls-4" d="M270.4,233.3c-.8,1-2.1,1.9-3.5,2.5-1.5.7-3.2,1-4.4.7h0c.1,0,.2-.1.4-.2,0,0,.2,0,.3-.1,3.1-1.9,1.4-5.5-1.8-9.2h0l-7.4-6.4-.4-.3h-.1c0-.1.2-.1.2-.1h.3l1.1.5,3.8,2.1h.3c0,.1,1.7,1.1,1.7,1.1l1.8,1h0c1.7-.4,3.6-.9,3.9-.9,1.3-.3,2-.7,2.4-1,0,.3,3.2,8.2,1.3,10.6M262.1,231.7l-2.7-2.2-1.9-1.6-.5-1.5v-.4c-.1,0-.8-2-.8-2h0c2.1,1.2,3.8,3.5,5,5.3.2.4,1.4,2.7,1.4,2.7l-.5-.4h0ZM248.2,213.5l-3.4-6.1-8.7-4.4,7.1,8.3c-3.7-2.1-10.1-5.5-17.1-6.8,0,0,5.9,5.5,8.7,8.3.5.3.6.6.6.6l-.6-.6c-.8-.5-2.7-1.3-7-1.5-4-.4-8.7-1.5-13-3.9,0,0,.9,1.3,2.6,2.8h0c1.6,1.4,4.1,3,7.3,4.1.3,0,3.5,1.4,3.8,1.5-2.4.9-4.3,2.1-6,3.3-3.2,2.5-5.2,5.4-6.3,8.4-2,5.2-3.9,14.6-2.5,19.9-4.5-6.1-8.5-13.9-6.3-22.7-6.9,3.9-11.3,2.6-16.1,1.9-2.2,3-5.1,10.1-5.5,16.2-.4-.6-.8-1.3-1.1-2.1-1.8-3.8-2.7-8.1-2.9-12.3-.1-1.7,0-3.3,0-4.7h0l15.7-11.1-22.8-1.9h0c.4-.3.8-.6,1.2-.8,8.8-6.2,19.6-10.5,30.5-10,.8,0,1.7,0,2.5.2-7-3.9-19.3-3.7-26.6-1.5-9.9,3.1-13.8,3.3-24.4,1.4,11.1-2.3,10.7-2.6,17.3-5.7,5.4-3,15.7-8.6,28.7-6.2-3.2-1.4-5.9-2.7-9.8-3.6-3.8-.9-9.9-1.7-16.5-.3,0,0,4.5-4.8,12.9-6-11.4-10.3-45.2-26.5-45.2-26.5,48,11.3,68.4,33.8,71.4,37.5.2.2.4.3.6.5-1.8-4.1-12.4-28.9-41.6-47.1-4-2.5-8.5-4.3-12.6-6.7-6.6-3.8-12.7-8.1-18.2-12.7h0c-54.2-43-34.1-102.3-34.1-102.3-1.8,13.8.6,27.2,4.6,39.2,2.5,7.6,5.7,14.6,9,20.7,3.7,6.8,7.4,12.5,10.3,16.6,6.8,8.2,14.8,15.3,24.1,20.4,0,0-40.9-27.9-17.7-87.3-.9,2.5-17,50.2,43.5,91.7,1.2.8,2,.8,2.4,1.6,8,19.4,39,50.2,44.8,65.1-.3-3-.5-6.1-.8-9.1,3.5,3.7,6.2,8.4,7.6,13.2.3-3,.5-7.5.8-10.5,5,2.8,12.4,8.5,18.6,15.1l-.2-.2c-.2-.2-.4-.5-.6-.7,0,0,.2.2.3.3,0,0,0,.1.1.2,0,0,.1.2.2.2,0,0,.1.1.2.2l-.3-4.4v-2.1c-.1,0,9.1,11.4,12.3,20.2.2.5.3,1,.5,1.5,0,2.5-.4,4.1-.8,5.2-.4.9-1.8,2.5-2.1,2.7-.2.2-.4.2-.4.2.4-.3.5-1.1.5-1.9s-.2-1.9-.5-3c-.3-1-.7-2-1-2.8-.4-.8-.6-1.4-.6-1.4.2,2,0,3.5-.1,4.6h0c-.5,2-1.4,2.6-1.7,2.7h0c0-.3-.1-.6-.2-.9-.3-.7-.5-1.5-.8-2.2-1-2.6-4.9-9.9-6.1-12.4-1.1,1.5.4,5.1.4,5.1.5,1,1.6,3.4,1.6,3.4-1.1,2.4.5,5.1,2.6,6.1-.6.3-2.6,0-4-.8.5,1.1,2.4,3.6,3.3,4.3-2.7-.7-8.9-5.5-12.2-8.4M271,203.3c0-.3-.1-.4-.1-.4v.3c-.2-.4-.4-.8-.6-1.3-.5-1.1-1.1-2.1-1.7-3-5.4-8.9-13.3-16.3-13.3-16.3v2.2h.2l.2,3.4s-25.4-14.8-36.3-28.4c-8.4-10.6-18.1-22.1-23.8-36.2l-2.1-3.4c-7.3-8.7-15-7.1-31.7-26.4-5.7-6.6-12.1-19.7-14.1-28.3-4.2-18.2-3.5-39,1-57.1,0,0,2.1-6.2-9.5,12.2h0c-5.8,9.2-9.8,19.7-11.8,30.4-1,5.5-1.4,11-1.3,16.4-3.9-7.8-7.1-16.3-9.2-25.1-2.8-11.6-4-23.6-2.8-35.1,0,0-2-2-9.1,16.8-7,18.8-8.1,34.8-4.9,52.8-12.9-10.9-15.8-31-20.1-46.9h0s0,.1-.2.2c-.2.3-.4,1-.5,2.5,0,1.1,0,2.3,0,3.4-.8,7.9-1.5,29.5,9.6,52.1.2.5.5,1.1.7,1.6,1.6,3.3,3.4,6.3,5.1,9.3,2.8,4.9,5,6.2,8.1,10.5-.3,0-19.3-4-26.3-5.1,4.2,2.8,11.9,9.8,20.7,18,0,0,26.2,2.1,46.8,17.3,0,0-17.8-8.7-39.2-10.2,1.3,1.2,2.5,2.4,3.8,3.6,6.1,5.7,12.2,11.5,17.7,16.3h0l-15.5-1.5,22.2,18h4c0,.1,7.5-.1,14.9,1.5,7.9,1.8,12.1,4.3,12.1,4.3-4.4-1.5-11.7-1.7-16.2-1.4-3.2.2-5.2,1.1-7.5,1.4l1.3,1,14,11.3,12.5.3c-10.5,6.6-20.9,9.1-34.2,4.7-7.1-2.4-13.9-6.1-19.7-10.7,2.3,5.8,7.8,10.7,12,15.1-14-1.1-25.3-4.3-38-10.2,4.9,7.6,8.8,12.7,12.6,16.8,3.9,4,9.2,8.4,11.9,10,1.7,1,9.5,1,14.7.5,1,0,1.9-.2,2.6-.3,1.2-.2,2.7-.5,4.2-.9,5.3-1.2,11.7-3,11.4-2.8-2.3,1.5-4.8,3-7.5,4.3-1.6.8-3.2,1.6-4.8,2.3-7.4,3.2-15.5,5.2-22.9,4.2,8.3,3,16.9,5.1,25.6,5.9,3,.3,4.1.2,6.7-1,3.9-1.8,7.1-3.3,10.2-4.8,1.6-.8,3.1-1.5,4.7-2.3,2.2-1.1,4.4-2.3,6.9-3.7-1.4,1.4-2.9,2.6-4.4,3.9-.8.7-1.7,1.4-2.6,2.1-3,2.5-6.2,5-9.9,8.3,9.9.7,15.6,2.3,28.7-1.8,0,0-2.7,2-6.5,4.2l3.9,7.6-4.2-1.9,2.8,5.2s2,2.4,4.8,4.5l1,3.1c-2.2-.6-5-3-6.3-3.9,2.2,8.8,7.4,7.1,8.9,12.4,1,3.6,4.8,10.1,2.7,13.5-2.5,4-4.2,3.8-7.8,7-4.1,3.7-1,8.4,0,9.8.9-4.3,4.1-7.2,5.9-7.7,2.9-.8,6.4-.2,7.6-1.5,4.6-4.6,14.4-5.7,21.2-1.5-3.1-5.1-4.8-4.9-11-6.7,11.1.7,11.8,3.2,17.2,9.4.4-3.6-2.5-8.1-5.1-10.3-.8-.7-9.6-1.9-18.1-2.6-3-.3-4.2-4.1-4.6-6.2.5.3,2.9,1.6,5.3,1.5-.6-3-1.4-6.4-1.9-8.5.8.4,1.7.9,3.6,1l-1.2-5c-.6-4-1.9-6.9,2-13.1,2.1,1.5,3.1,2.1,4.1,3.2,0,0,.8,3.9,1.7,5.9.2.4,4,3.6,4.1,4l-6.6-1.9s2.2,5,6.5,7.8c2.6.9,4.8,1.9,5.6,2.9s2.1,3.8,1.5,5.3c-.5,1.2-4-4-11.3,2.2,5,0,11,1.4,12.3,3,1.7,2,2.9,3.8,4.1,4.5,5.3,3.2,5.7,4.9,5.3,11.1,3.3-2.5,2.4-9.2,1.9-10.8,4.4,5.2,3.4,12.3,2.1,15.1,3.3-1.8,7.2-9,3.5-14.8-1-.9-6.5-5.1-7.6-6.3-2.8-3.2-3.5-6.7-4.8-10.4,1,0,2.2.4,3.1.4-.5-2.1-1.2-4.9-1.7-8,0-.3,0-.6-.1-.8v-.3c0-.5-.1-.9-.2-1.4v-.3c0-.5-.1-1-.2-1.4,1.8,1.2,3,1.6,3,1.6l-3.1-8.3h0c0-.6.1-1.3.2-1.9h0c0-.7.2-1.2.3-1.8v-.3c.1-.5.3-1,.5-1.5,0-.1,0-.2.1-.4.2-.6.5-1.2.7-1.8-1.4,3,2.7,7.3,2.7,7.3.5-6.6,6.4-12.8,11.4-15-.3,1.8.7,3.7.7,3.7,1.5-3.1,4.5-4.3,6.6-4.8l4,1.6,4.2,1.7,1.1.5s.8,3.4,2.6,4.9,3.7,2.5,8.2,5.4c-.3,1.1-1.4,2.2-3.4,2.9,6.4,2.4,14.5-.5,13.4-7.4-.4-2.4-1.5-9.1-1.5-9.1h0l1.5-5,.5-1.5v-.2l.3-.7c0-3.2-1-6.6-2.6-9.9" inkscape:connector-curvature="0"/>
          </g>
          <g id="g234">
            <path id="path236" class="cls-4" d="M309.2,55.2h.4c-10.3.7-20.6,3.7-29.1,9.1,7-13.7,22.5-22.9,36.2-28.3,0,0,1.7-2.6-14.9-.2-2.2.2-4.3.6-6.4,1.1h0c-9.1,2-17.8,6.1-25.1,11.8-4.1,3.3-7.8,7-10.9,11.3-14,18.6-18.7,34.8-18.7,34.8,0,0-2-24,28.6-55.6,3.4-5.6,7.2-11,11.3-15.9,0,0,.7-3.6-16.6,9.6-12.5,8.8-23.5,20.3-31.4,33.1-2.8,5.1-8.9,16.5-10.7,24v.7s.2,4.5,1,10.5c1,7.3,4,17.3,4,17.3-2-4.1-5.7-13.3-6.9-17.5-.6-2.1-1.1-4-1.5-5.9-.3-1.2-.4-2.3-.6-3.4-.1-.6-.2-1.2-.3-1.8-.1-1-.3-2-.4-2.9-.4-3.5-.5-6.8-.6-10.2,0-4.4.1-8.4.3-11.3-8,18.2-8.7,32.3-8.7,37.9-.4,3.6-.6,6.3-.8,8.5,2.1,5.9,5.7,13.7,12.3,23.6,0,0-5.9-3.3-12.8-15.4-.3,2.7-.8,5.7-1.8,10.5,7.9,13.4,15.8,23.7,22.9,31.5v-15.9c2.6,2.6,4.3,4.5,5.5,6.1,1.1-5.2,2.7-11.4,5-18,13.9-41.3,30.3-53.9,30.3-53.9-15.1,23.7-29,71.5-28.5,93.8,2.9,2.5,5.6,4.5,7.7,6-1.2-1.8-2.2-3.8-2.4-5.3,6.7-31.9,27.8-52.7,27.8-52.7,4.6-45.7,56.3-65.1,56.3-65.1,4.2-3.1-20.7-2-20.7-2" inkscape:connector-curvature="0"/>
          </g>
          <g id="g238">
            <path id="path240" class="cls-8" d="M316.9,318.4v-25.9c-2.7,2.1-5.3,3.9-7.7,5.6v7.6h-3.9v-5c-16.8,11.1-25.1,12.3-25.1,12.3,11.3-5.8,19.4-11.5,25.1-16.3v-9.9c-20.7,17.7-39.2,26.9-46.1,29.9v4.1h35.4c7.1-1.2,14.6-1.7,22.2-1.4" inkscape:connector-curvature="0"/>
          </g>
          <g id="g242">
            <path id="path244" class="cls-9" d="M285,323.2c-5.5,1.4-10.6,3.2-14.8,5.1v-5.1h14.8Z" inkscape:connector-curvature="0"/>
          </g>
          <g id="g246">
            <path id="path248" class="cls-9" d="M240.5,344.9c-1.4.6-3.8,1.7-4.9,2.1v-16.1h4.9v13.9h0Z" inkscape:connector-curvature="0"/>
          </g>
          <path id="path250" class="cls-9" d="M240.5,329h-4.9v-12.2h4.9v12.2Z" inkscape:connector-curvature="0"/>
          <g id="g252">
            <path id="path254" class="cls-9" d="M257.3,334.8v-3.8h-4.3v7.3c1.4-.8,2.9-1.7,4.4-2.6v-.9h-.1Z" inkscape:connector-curvature="0"/>
          </g>
          <path id="path256" class="cls-9" d="M257.3,329h-4.3v-12.2h4.3v12.2Z" inkscape:connector-curvature="0"/>
          <g id="g258">
            <path id="path260" class="cls-9" d="M245.7,339v-8.1h-3.3v13c1.1-.5,2.2-1.1,3.3-1.7v-3.2h0Z" inkscape:connector-curvature="0"/>
          </g>
          <path id="path262" class="cls-9" d="M245.7,329h-3.3v-12.2h3.3v12.2Z" inkscape:connector-curvature="0"/>
          <path id="path264" class="cls-9" d="M251,329h-3.3v-12.2h3.3v12.2Z" inkscape:connector-curvature="0"/>
          <g id="g266">
            <path id="path268" class="cls-9" d="M251,338.3v-7.3h-3.3v10.3c1.1-.6,2.2-1.2,3.3-1.8v-1.2Z" inkscape:connector-curvature="0"/>
          </g>
          <path id="path270" class="cls-9" d="M257.3,306.4h-21.7v8.4h21.7v-8.4Z" inkscape:connector-curvature="0"/>
          <g id="g272">
            <path id="path274" class="cls-9" d="M149,336c-1.6-.8-3.2-1.6-4.8-2.3v-2.8h4.8v5.1h0Z" inkscape:connector-curvature="0"/>
          </g>
          <path id="path276" class="cls-9" d="M149.1,329h-4.9v-12.2h4.9v12.2Z" inkscape:connector-curvature="0"/>
          <g id="g278">
            <path id="path280" class="cls-9" d="M161.5,342.2c1.5.7,2.9,1.4,4.4,2v-13.3h-4.5v11.2h.1Z" inkscape:connector-curvature="0"/>
          </g>
          <path id="path282" class="cls-9" d="M165.9,329h-4.4v-12.2h4.4v12.2Z" inkscape:connector-curvature="0"/>
          <path id="path284" class="cls-9" d="M154.3,329h-3.3v-12.2h3.3v12.2Z" inkscape:connector-curvature="0"/>
          <path id="path286" class="cls-9" d="M159.5,329h-3.3v-12.2h3.3v12.2Z" inkscape:connector-curvature="0"/>
          <path id="path288" class="cls-9" d="M166,306.4h-21.7v8.4h21.7v-8.4Z" inkscape:connector-curvature="0"/>
          <g id="g290">
            <path id="path292" class="cls-9" d="M156.2,339.7c1,.5,2.3,1.2,3.3,1.7v-10.4h-3.3v8.7h0Z" inkscape:connector-curvature="0"/>
          </g>
          <g id="g294">
            <path id="path296" class="cls-9" d="M138.9,331.3c1.1.5,2.2,1,3.3,1.6v-9.7h-3.3v8.1Z" inkscape:connector-curvature="0"/>
          </g>
          <g id="g298">
            <path id="path300" class="cls-9" d="M150.9,337l.6.3c.9.5,1.9.9,2.8,1.4v-7.7h-3.3v6.1h-.1Z" inkscape:connector-curvature="0"/>
          </g>
          <g id="g302">
            <path id="path304" class="cls-8" d="M85.5,309.4v-16.7c2.7,2.1,5.3,3.9,7.7,5.6v7.6h3.9v-5c16.8,11.1,25.1,12.3,25.1,12.3-11.3-5.8-19.4-11.5-25.1-16.3v-9.9c19.8,17,37.6,26.1,45.1,29.5v4.5s-30.1.1-30.9,0c-8.8-1.9-17.6-2-25.9-1.2" inkscape:connector-curvature="0"/>
          </g>
          <g id="g306">
            <path id="path308" class="cls-9" d="M131.7,328.2c-4.2-1.7-9.9-4-13-5.1h13v5.1Z" inkscape:connector-curvature="0"/>
          </g>
          <g id="g310">
            <path id="path312" class="cls-9" d="M133.6,327.9v-4.7h3.3v7.2c-.3-.2-1.6-.7-3.4-1.4v-1.1h0Z" inkscape:connector-curvature="0"/>
          </g>
          <g id="g314">
            <path id="path316" class="cls-9" d="M263,330.9v-7.8h-3.7v11.4c1.2-.8,2.4-1.5,3.7-2.3v-1.3h0Z" inkscape:connector-curvature="0"/>
          </g>
          <g id="g318">
            <path id="path320" class="cls-9" d="M268.2,328.3v-5.1h-3.3v7.8c1.1-.6,2.2-1.2,3.3-1.8v-.9Z" inkscape:connector-curvature="0"/>
          </g>
          <g id="g322">
            <path id="path324" class="cls-9" d="M233.7,314.9v-6c0-18.2-14.7-32.9-32.9-32.9s-32.9,14.7-32.9,32.9v6h5.6c-.4-1.8-.5-3.6-.5-5.5,0-15.3,12.4-27.7,27.7-27.7s27.7,12.4,27.7,27.7-.2,3.7-.5,5.5h6-.2Z" inkscape:connector-curvature="0"/>
          </g>
          <g id="g326">
            <path id="path328" class="cls-8" d="M93.2,290.9v-7.4l-7.7-7.7v8.7c1,1.6,3.4,4.8,7.7,8.9v-2.5Z" inkscape:connector-curvature="0"/>
          </g>
          <g id="g330">
            <path id="path332" class="cls-8" d="M316.9,284.4c-1.1,1.6-3.4,4.8-7.7,8.9v-9.9l7.7-7.7v8.7Z" inkscape:connector-curvature="0"/>
          </g>
          <g id="g334">
            <path id="path336" class="cls-9" d="M195.3,341c-.9,0-1.5.6-1.5,1.6s.5,1.5,1.5,1.5,1.2-.2,1.7-.6h0c0-1.6-.7-2.5-1.7-2.5" inkscape:connector-curvature="0"/>
          </g>
          <g id="g338">
            <path id="path340" class="cls-9" d="M203.6,341c-1.2,0-1.8,1.1-1.8,3.1s.6,3.1,1.8,3.1,1.8-1.1,1.8-3.1-.6-3.1-1.8-3.1" inkscape:connector-curvature="0"/>
          </g>
          <g id="g342">
            <path id="path344" class="cls-9" d="M211.2,348.5c-1.1,0-1.9-.3-2.6-.6l.2-1.4c.6.4,1.4.7,2.3.7s1.7-.5,1.7-1.5-.6-1.4-1.6-1.4-1,.1-1.3.3l-1.1-.2.3-4.5h4.7l.2,1.4h-3.7l-.2,2c.3,0,.7-.2,1.3-.2,1.7,0,2.8,1,2.8,2.6s-1.4,2.9-3.3,2.9M203.6,348.5c-2,0-3.4-1.6-3.4-4.4s1.4-4.4,3.4-4.4,3.4,1.6,3.4,4.4-1.4,4.4-3.4,4.4M193.6,348.7l-.2-1.3c1.7-.3,3-1.1,3.5-2.6-.6.4-1.3.6-2,.6-1.5,0-2.6-.9-2.6-2.6s1.3-2.9,3-2.9,3.2,1.2,3.2,3.6-2,4.7-4.9,5.2M190.2,348.4h-1.6v-6.9l-1.7.7-.2-1.3,2.1-1h1.4v8.5h0ZM227.2,316.9c-3.3,11.6-14,20.2-26.6,20.2s-23.4-8.6-26.6-20.2h-6.1v28.2c11.4,5,22.8,8.6,35.3,8.6h.2c10.8,0,20.6-2.1,30.3-5.9v-31h-6.5Z" inkscape:connector-curvature="0"/>
          </g>
          <g id="g346">
            <path id="path348" class="cls-9" d="M78.1,272.2c1.2.2,2.3.5,3.3.8v14.8c-1-.3-2.1-.6-3.3-.8v-14.8Z" inkscape:connector-curvature="0"/>
          </g>
          <g id="g350">
            <path id="path352" class="cls-9" d="M76.1,286.7c-1.1-.1-2.2-.2-3.3-.3v-14.8h1.6c.6,0,1.1.1,1.7.2v14.8h0Z" inkscape:connector-curvature="0"/>
          </g>
          <g id="g354">
            <path id="path356" class="cls-9" d="M67.6,286.7c1.1-.1,2.2-.2,3.3-.3v-14.8c-1.1,0-2.2.1-3.3.3v14.8Z" inkscape:connector-curvature="0"/>
          </g>
          <g id="g358">
            <path id="path360" class="cls-9" d="M62.4,287.8c1-.3,2.1-.6,3.3-.8v-14.8c-1.2.2-2.2.5-3.3.8,0,0,0,14.8,0,14.8Z" inkscape:connector-curvature="0"/>
          </g>
          <g id="g362">
            <path id="path364" class="cls-9" d="M59.4,260.2c.7-.3,1.5-.6,2.2-.9v1.8l-2.2-.9Z" inkscape:connector-curvature="0"/>
          </g>
          <g id="g366">
            <path id="path368" class="cls-9" d="M70.9,265.4c-1.1,0-2.2.1-3.3.3v-7.7c1.1-.1,2.2-.2,3.3-.3v7.7Z" inkscape:connector-curvature="0"/>
          </g>
          <g id="g370">
            <path id="path372" class="cls-9" d="M76.1,257.9c-1.1-.1-2.2-.2-3.3-.3v7.7c1.1,0,2.2.1,3.3.3v-7.7Z" inkscape:connector-curvature="0"/>
          </g>
          <g id="g374">
            <path id="path376" class="cls-9" d="M78.1,258.3c1.2.2,2.3.5,3.3.8v7.7c-1-.3-2.1-.6-3.3-.8v-7.7Z" inkscape:connector-curvature="0"/>
          </g>
          <g id="g378">
            <path id="path380" class="cls-9" d="M65.7,265.9c-1.1.2-2.3.5-3.3.8v-7.7c1-.3,2.1-.6,3.3-.8v7.7Z" inkscape:connector-curvature="0"/>
          </g>
          <g id="g382">
            <path id="path384" class="cls-9" d="M82.1,259.3c.8.3,1.6.6,2.3.9l-2.3.9v-1.8Z" inkscape:connector-curvature="0"/>
          </g>
          <g id="g386">
            <path id="path388" class="cls-9" d="M59.4,274.2c.7-.3,1.5-.6,2.2-.9v1.8l-2.2-.9Z" inkscape:connector-curvature="0"/>
          </g>
          <g id="g390">
            <path id="path392" class="cls-9" d="M82.1,273.3c.8.3,1.6.6,2.3.9l-2.3.9v-1.8Z" inkscape:connector-curvature="0"/>
          </g>
          <g id="g394">
            <path id="path396" class="cls-9" d="M84.4,255.2c-3.4-1.6-7.8-2.5-12.5-2.5s-9,.9-12.5,2.5v3.2c3.4-1.6,7.7-2.5,12.5-2.5s9.1.9,12.5,2.5v-3.2h0Z" inkscape:connector-curvature="0"/>
          </g>
          <g id="g398">
            <path id="path400" class="cls-9" d="M84.4,269.3c-3.4-1.6-7.8-2.5-12.5-2.5s-9,.9-12.5,2.5v3.2c3.4-1.6,7.7-2.5,12.5-2.5s9.1,1,12.5,2.5v-3.2Z" inkscape:connector-curvature="0"/>
          </g>
          <g id="g402">
            <path id="path404" class="cls-9" d="M84.4,253.8c-3.4-1.6-7.8-2.5-12.5-2.5s-9,.9-12.5,2.5l9.9-9.4h5.2l9.9,9.4Z" inkscape:connector-curvature="0"/>
          </g>
          <g id="g406">
            <path id="path408" class="cls-9" d="M69.3,241.8v1.6h5.2v-1.6c0-.6-1.3-.6-1.6-.6h-2c-.3,0-1.6,0-1.6.6" inkscape:connector-curvature="0"/>
          </g>
          <g id="g410">
            <path id="path412" class="cls-9" d="M81.4,303.8c-1-.3-2.1-.6-3.3-.8v-14.4c1.2.2,2.3.5,3.3.8v14.4Z" inkscape:connector-curvature="0"/>
          </g>
          <g id="g414">
            <path id="path416" class="cls-9" d="M76.1,302.7c-1.1-.1-2.2-.2-3.3-.3v-14.4c1.1,0,2.2.1,3.3.3v14.4Z" inkscape:connector-curvature="0"/>
          </g>
          <g id="g418">
            <path id="path420" class="cls-9" d="M70.9,302.4c-1.1,0-2.2.1-3.3.2v-14.4c1.1-.1,2.2-.2,3.3-.3v14.4h0Z" inkscape:connector-curvature="0"/>
          </g>
          <g id="g422">
            <path id="path424" class="cls-9" d="M65.7,302.9c-1.1.2-2.2.5-3.3.8v-14.4c1-.3,2.1-.6,3.3-.8v14.4Z" inkscape:connector-curvature="0"/>
          </g>
          <g id="g426">
            <path id="path428" class="cls-9" d="M336.8,272.2c1.2.2,2.3.5,3.3.8v14.8c-1-.3-2.1-.6-3.3-.8v-14.8Z" inkscape:connector-curvature="0"/>
          </g>
          <g id="g430">
            <path id="path432" class="cls-9" d="M334.9,286.7c-1.1-.1-2.2-.2-3.3-.3v-14.8h1.6c.6,0,1.1.1,1.7.2v14.8h0Z" inkscape:connector-curvature="0"/>
          </g>
          <g id="g434">
            <path id="path436" class="cls-9" d="M326.4,286.7c1.1-.1,2.2-.2,3.3-.3v-14.8c-1.1,0-2.2.1-3.3.3v14.8Z" inkscape:connector-curvature="0"/>
          </g>
          <g id="g438">
            <path id="path440" class="cls-9" d="M321.2,287.8c1-.3,2.1-.6,3.3-.8v-14.8c-1.1.2-2.2.5-3.3.8v14.8Z" inkscape:connector-curvature="0"/>
          </g>
          <g id="g442">
            <path id="path444" class="cls-9" d="M318.2,260.2c.7-.3,1.5-.6,2.2-.9v1.8l-2.2-.9Z" inkscape:connector-curvature="0"/>
          </g>
          <g id="g446">
            <path id="path448" class="cls-9" d="M329.7,265.4c-1.1,0-2.2.1-3.3.3v-7.7c1.1-.1,2.2-.2,3.3-.3v7.7Z" inkscape:connector-curvature="0"/>
          </g>
          <g id="g450">
            <path id="path452" class="cls-9" d="M334.9,257.9c-1.1-.1-2.2-.2-3.3-.3v7.7c1.1,0,2.2.1,3.3.3v-7.7Z" inkscape:connector-curvature="0"/>
          </g>
          <g id="g454">
            <path id="path456" class="cls-9" d="M336.8,258.3c1.2.2,2.3.5,3.3.8v7.7c-1-.3-2.1-.6-3.3-.8v-7.7Z" inkscape:connector-curvature="0"/>
          </g>
          <g id="g458">
            <path id="path460" class="cls-9" d="M324.4,265.9c-1.1.2-2.3.5-3.3.8v-7.7c1-.3,2.1-.6,3.3-.8v7.7Z" inkscape:connector-curvature="0"/>
          </g>
          <g id="g462">
            <path id="path464" class="cls-9" d="M340.8,259.3c.8.3,1.6.6,2.3.9l-2.3.9v-1.8Z" inkscape:connector-curvature="0"/>
          </g>
          <g id="g466">
            <path id="path468" class="cls-9" d="M318.2,274.2c.7-.3,1.5-.6,2.2-.9v1.8l-2.2-.9Z" inkscape:connector-curvature="0"/>
          </g>
          <g id="g470">
            <path id="path472" class="cls-9" d="M340.8,273.3c.8.3,1.6.6,2.3.9l-2.3.9v-1.8Z" inkscape:connector-curvature="0"/>
          </g>
          <g id="g474">
            <path id="path476" class="cls-9" d="M343.1,255.2c-3.4-1.6-7.8-2.5-12.5-2.5s-9,.9-12.5,2.5v3.2c3.4-1.6,7.7-2.5,12.5-2.5s9.1.9,12.5,2.5v-3.2h0Z" inkscape:connector-curvature="0"/>
          </g>
          <g id="g478">
            <path id="path480" class="cls-9" d="M343.1,269.3c-3.4-1.6-7.8-2.5-12.5-2.5s-9,.9-12.5,2.5v3.2c3.4-1.6,7.7-2.5,12.5-2.5s9.1,1,12.5,2.5v-3.2Z" inkscape:connector-curvature="0"/>
          </g>
          <g id="g482">
            <path id="path484" class="cls-9" d="M343.1,253.8c-3.4-1.6-7.8-2.5-12.5-2.5s-9,.9-12.5,2.5l9.9-9.4h5.2l9.9,9.4Z" inkscape:connector-curvature="0"/>
          </g>
          <g id="g486">
            <path id="path488" class="cls-9" d="M328.1,241.8v1.6h5.2v-1.6c0-.6-1.3-.6-1.6-.6h-2c-.3,0-1.6,0-1.6.6" inkscape:connector-curvature="0"/>
          </g>
          <g id="g490">
            <path id="path492" class="cls-9" d="M340.1,303.8c-1-.3-2.1-.6-3.3-.8v-14.4c1.1.2,2.2.5,3.3.8v14.4Z" inkscape:connector-curvature="0"/>
          </g>
          <g id="g494">
            <path id="path496" class="cls-9" d="M334.9,302.7c-1.1-.1-2.2-.2-3.3-.3v-14.4c1.1,0,2.2.1,3.3.3v14.4Z" inkscape:connector-curvature="0"/>
          </g>
          <g id="g498">
            <path id="path500" class="cls-9" d="M329.7,302.4c-1.1,0-2.2.1-3.3.2v-14.4c1.1-.1,2.2-.2,3.3-.3v14.4h0Z" inkscape:connector-curvature="0"/>
          </g>
          <g id="g502">
            <path id="path504" class="cls-9" d="M324.4,302.9c-1.1.2-2.2.5-3.3.8v-14.4c1-.3,2.1-.6,3.3-.8v14.4Z" inkscape:connector-curvature="0"/>
          </g>
          <g id="g506">
            <path id="path508" class="cls-9" d="M65.7,323.5c-1.1.3-2.2.6-3.3,1v-18.9s2.1-.6,3.3-.8v18.8h0ZM71,322.2c-1.2.3-2.3.5-3.4.8v-18.6s2.2-.2,3.3-.3v18.1ZM76.1,304.4c-1.1-.1-3.3-.3-3.3-.3v17.5c1.1-.2,2.2-.5,3.3-.7v-16.6h0ZM81.4,315v-9.5c-1-.3-3.3-.8-3.3-.8v16s2.2-.4,3.3-.5v-5.2ZM324.4,317v-12.3c-1.1.2-3.3.8-3.3.8v14.5c1.1,0,2.2.2,3.3.3M329.7,316.4v-12.2c-1.2,0-3.3.3-3.3.3v16.1c1.1.2,2.3.4,3.4.6M334.9,322.4c-1.1-.3-2.2-.6-3.3-.8v-17.4s2.2.1,3.3.3v17.9h0ZM340.1,323.9c-1.1-.4-2.2-.8-3.3-1.1v-18.2s2.3.5,3.3.8v18.4h0Z" inkscape:connector-curvature="0"/>
          </g>
          <g id="g510">
            <path id="path512" class="cls-3" d="M190,318.9c4.4,2.4,8.7,3.6,11.5,4.1h.2c.2,0,.4,0,.5-.2.2-.2.3-.4.3-.6.2-4.7-.9-8.9-1.3-10.5,0-.2-.2-.4-.5-.5-5.7-2.7-10.3-5.8-13.6-9-2.5-2.3-4.3-4.7-5.3-7.1-.1-.3-.4-.5-.7-.5s-.6.1-.8.4c-1.9,2.7-3.2,5.8-4,9v.6c2.8,6.2,7.4,11,13.6,14.5" inkscape:connector-curvature="0"/>
          </g>
          <g id="g514">
            <path id="path516" class="cls-3" d="M188.3,300.7c.2.2.4.2.6.2h0c.3,0,.5-.1.6-.4,6.6-8.9,13.9-12.2,18.8-13.5.4,0,.7-.4.7-.8s-.2-.7-.6-.9c-2.5-.8-5.1-1.2-7.7-1.2s-6.6.7-9.8,2c-3,1.3-5.6,3.1-7.9,5.3-.2.2-.3.5-.2.8.4,1.5,1.5,4.5,5.5,8.3" inkscape:connector-curvature="0"/>
          </g>
          <g id="g518">
            <path id="path520" class="cls-3" d="M190.8,301.9c-.3.4-.2.9.2,1.2,2.7,2.1,6,4.2,9.9,6.1h.4c.3,0,.5-.1.7-.3,2.3-2.7,8.9-9.1,19.8-10.7.3,0,.5-.2.7-.5.1-.3.1-.6,0-.8-1.9-3.4-4.7-6.4-7.9-8.5-.1,0-.3-.1-.5-.1-1,0-4.7,0-9.4,2.1-5.2,2.3-9.8,6.1-13.8,11.5" inkscape:connector-curvature="0"/>
          </g>
          <g id="g522">
            <path id="path524" class="cls-3" d="M224,300.4c-.1-.4-.5-.6-.9-.6-1.9.2-3.9.6-5.7,1.2-.2,0-.4.2-.5.4-.1.2-.1.5,0,.7.6,2,1.8,6,2,10.8.1,3-.1,5.9-.8,8.6-.4,1.8-1,3.5-1.8,5-.2.4,0,.8.3,1.1.2.1.3.2.5.2s.4,0,.6-.2c2.7-2.5,4.8-5.5,6.2-9,2.4-5.9,2.4-12.3.2-18.2" inkscape:connector-curvature="0"/>
          </g>
          <g id="g526">
            <path id="path528" class="cls-3" d="M202,325c-.1-.2-.3-.3-.6-.4-2.7-.5-6.9-1.6-11.4-3.9-5.3-2.7-9.6-6.5-12.7-11.1-.2-.3-.6-.5-1-.4s-.6.5-.6.9c.1,3,.8,5.9,1.9,8.7,1.8,4.1,4.6,7.7,8.2,10.3,3.4,2.5,7.5,4.1,11.8,4.7h.1c.3,0,.5-.1.7-.3,1.9-2.1,3.1-4.8,3.7-8,0-.2,0-.5-.1-.7" inkscape:connector-curvature="0"/>
          </g>
          <g id="g530">
            <path id="path532" class="cls-3" d="M215.2,302.9c0-.2-.3-.4-.5-.5s-.5-.1-.7,0c-6,2.7-9.6,6.5-10.9,8.1-.2.2-.3.5-.2.8.5,1.7,1.3,5,1.4,9,0,2.5-.2,4.9-.7,7-.5,2-1.3,3.9-2.4,5.6-.2.3-.2.6,0,.9s.4.4.8.4h0c2.5-.1,5-.7,7.5-1.6.1,0,.2,0,.3-.2,2.6-2.4,4.5-5.3,5.7-8.6,1-2.8,1.5-5.9,1.6-9.1,0-5.1-1.2-9.6-1.9-11.8" inkscape:connector-curvature="0"/>
          </g>
        </g>
      </g>
    </g>
  </g>
</svg>