<?xml version="1.0" encoding="UTF-8"?>
<svg xmlns="http://www.w3.org/2000/svg" version="1.1" viewBox="0 0 500 500">
  <defs>
    <style>
      .cls-1 {
        fill: #d2232d;
      }
    </style>
  </defs>
  <!-- Generator: Adobe Illustrator 28.7.1, SVG Export Plug-In . SVG Version: 1.2.0 Build 142)  -->
  <g>
    <g id="Layer_1">
      <g>
        <path class="cls-1" d="M141,220c0,.3.2.5.2.8.4,3,1,6,1.8,9,1.5,5.7,4.4,10.7,7.6,15.6,2.1,3.2,4.7,5.9,7.3,8.6,2.5,2.7,5.3,5,8.2,7.2,3.9,3.1,8.3,5.6,12.7,8,7.4,4,15.3,6.7,23.2,9.3,10.9,3.6,22.1,6.2,33.5,7.6,1.2.2,1.9.6,2.3,1.8,1.1,3.2,2,6.3,2.6,9.6,1.3,7.6,1.1,15.1-1.7,22.4,0,.2,0,.4.1.6.5.2.9-.2,1.3-.4,2.8-1.4,5.2-3.4,7.2-5.8.5-.5.8-1.4,1.9-1.5.4,2.3.7,4.5,1.1,6.7,2.8,16.6,7.3,32.6,14.4,47.9.9,1.9,1.9,3.6,2.7,5.5,1,2.4-.2,3.9-2.7,3.9-1.8,0-3.5-.5-5.1-1.2-3.7-1.5-7.5-2.6-11.4-3.3-2.3-.4-4.6-.7-6.9.2-2.3.9-3,1.8-2.9,4.3,0,.9-.2,1.2-1,1.2-1.2,0-2.4,0-3.6,0-2.8.2-4.9,1.6-6.4,4-1.2,2-.7,4.9,1,6,1,.6,1.4.6,2-.4,1.7-2.9,6.7-5.2,9.9-4.3.5.1.7.5.3.9-.6.6-1.4,1-2,1.5-2.7,2.3-2.8,5.9-.2,7.9,1,.8,2.2,1.2,3.7,1,.2-3,2.3-4.5,4.7-5.8,2.9-1.5,6-2.2,9.1-2.6,8.2-1.1,16.5-1.5,24.8-1.2,5.5.2,10.9.7,16.2,2,2.3.6,4.4,1.7,5.8,3.7.8,1.2,1.3,1.3,2.5.4,1.9-1.3,3.3-3.1,4.2-5.2.6-1.5.3-2.9-.7-4.2-.6-.7-1.3-1.3-2.1-1.7-3.3-1.7-6.9-2-10.5-1.8-2.9.2-5.8.3-8.7-.2-3.6-.6-6-2.5-7.6-5.7-3-6.1-4.8-12.6-6.4-19.2-1.4-6.1-2.7-12.2-3.7-18.3-1-6.3-1.9-12.6-2.2-19q-.2-.9.6-.8c.2.2.3.5.5.6,4.1,2.9,8.7,4.1,13.6,4.1.8,0,1.5,0,2.2-.5,1.1-.7,1.2-1,.2-1.8-1.8-1.5-3.8-2.8-5.4-4.4-6.5-6.7-10.3-14.8-11.7-24-.3-.3-.3-.5-.1-.8-.3-1-.5-2-.4-3-.2-.3-.3-.6,0-.9-.4-2.5-.4-5.1,0-7.6-.2-.5-.1-.9.1-1.3-.1-1.2.2-2.3.4-3.4.2-1,0-1.7-.9-2.4-3.8-3-7.5-6.3-11-9.6-6.6-6.3-12.9-12.8-18.1-20.2-4.6-6.5-8.1-13.6-9.3-21.5-.3-1.7-.6-3.5,0-5.3,0-.3.2-.7.7-.6.3,0,.4.3.5.6,1,2.5,2,5,2.9,7.5,0,.2.2.3.3.5,1,.7.9,2,1.4,3,1.8,3.9,4,7.6,6.5,11,2.3,3.2,4.8,6.3,7.7,9.1,4.8,4.7,9.6,9.5,14.6,14.1,1.5,1.4,3.3,2.6,4.7,4.2,1,1.2,2,2.4,3.2,3.4,2.8,2.1,4.7,5,6.8,7.7,4.1,5.4,7.3,11.2,9.2,17.8,1.1,3.8,1.7,7.5,1.9,11.4.4,1.4.3,2.8,0,4.2,0,.8,0,1.6,0,2.3,0,.6-.3,1.4.5,1.6.7.2,1.1-.6,1.4-1.1.2-.3.2-.7.3-1,1.3-2.9,1.7-6.1,2.1-9.3.8-7.6-.1-15.1-2.6-22.4-1.9-5.6-4.6-10.9-8.1-15.6-4.5-6.1-10.1-11-15.8-15.9-5.5-4.7-11.1-9.2-16.3-14.2-4.3-4.1-8.1-8.5-11.3-13.4-.9-1.4-1.9-2.8-2.3-4.5-.1-.5-.3-1.1.2-1.4.5-.3,1-.2,1.6.1,1.1.6,1.9,1.5,2.5,2.5.4.6.8,1.3,1.4,1.6,2.2,1.2,3.3,3.6,5.6,4.7,0,0,.1.2.2.4.2.1.3.2.5.4,1.1.3,1.9,1.2,2.7,1.9,4.6,4,9.9,6.4,15.4,8.6,2.8,1.1,5.9,1.6,8.9,2.1,4.3.7,8.6,1.2,12.9.2,3.2-.7,6.2-1.7,9.1-3.2,3.8-2,7.2-4.5,10.3-7.5.5-.5,1.1-1.1.7-1.8-.3-.7-1.1-.4-1.7-.4-2.8,0-5.7,0-8.5-.3-.3.2-.6.2-.9,0-1.1,0-2.3,0-3.4-.3-.3.2-.6.1-.9,0-3.6-.2-7.2-1-10.7-1.7-7.6-1.6-14.9-4-21.8-7.7-.7-.4-1.3-.8-1.9-1.3-.6-.5-.5-1,.2-1.2.4-.1.8-.1,1.3-.1,2.2,0,4.4-.3,6.5-.9,2.8-.7,5.6-1.8,8-3.5,2.4-1.7,4.5-3.6,6.1-6.1.4-.6.7-1.1.4-1.8-.4-.8-1.1-.4-1.7-.4-.6,0-1.3,0-1.9.1-5.3.4-10.6.1-15.9-.7-.7-.1-1.8,0-1.8-1,0-1,1.1-.9,1.9-.9,5.9-.5,11.5-1.7,16.8-4.3,3.8-1.9,6.8-4.5,9.1-8.1.5-.8.8-1.7,1-2.6.1-.7-.2-1.2-1.1-1-1.5.3-3.1.6-4.6.9-3.7.6-7.3,1.6-11.1,1.9-.3.2-.6.3-.9.1-.8.3-1.7.3-2.5.3-.3.2-.6.3-.8,0-2.2.3-4.4.4-6.6.1-.4,0-.9,0-.9-.6,0-.5.4-.7.8-.8,1.2-.3,2.3-.7,3.5-.9,2.1-.3,4-1,6-1.5,2.3-.5,4.5-1.7,6.8-2.6,3.9-1.6,7.6-3.6,10.6-6.7,1.5-1.6,2.7-3.5,3.2-5.6.5-2.1-.7-3.1-2.6-2.2-2.8,1.3-5.8,2.3-8.7,3.3-5.7,1.9-11.5,3.4-17.5,4.2-.8.1-1.6.1-2.1-.5.2-.8.9-.9,1.4-1.1,1.3-.6,2.6-1,4-1.4,5.3-1.7,10.4-3.8,15.2-6.7,3.7-2.3,7.2-4.8,9.4-8.7,1-1.8,1.8-3.7,1.7-5.8,0-2.3-1-2.9-3.1-2-1.8.8-3.4,1.7-5.2,2.5-3.1,1.4-6.2,2.7-9.3,3.9-1.9.8-3.8,1.4-5.8,1.9-.6.2-1,0-1.2-.5-.2-.6.3-.6.6-.9,4.1-3.3,8.7-5.9,13-8.9,7-4.6,14.1-9.1,20.8-14.1,3.2-2.4,6.4-4.9,9.6-7.3,4.2-3.2,8.1-6.8,11.9-10.3,10.6-9.8,19.9-20.6,28.4-32.3,4.6-6.3,8.7-12.8,12.3-19.7,4.2-7.9,8.1-15.8,10.7-24.4,1.6-5.4,2-10.8.2-16.2-1.5-4.4-3.4-8.4-7.2-11.4-.3,0-.6,0-.9.1-.3.6-.4,1.3-.4,2.1,0,1.5,0,3-.3,4.4-.8,4.6-1.4,9.2-3,13.7-.8,2.1-1.3,4.4-2,6.7-.9,2.7-1.7,5.4-2.8,8.1-2.1,5.5-4.1,11-6.8,16.2-4.1,7.9-8.4,15.6-13.6,22.8-2.5,3.5-5.1,6.9-7.6,10.3-1.1,1.5-2.5,2.8-3.7,4.3-1,1.3-1.8,2.7-3,3.8-2.4,2.1-4.6,4.4-6.8,6.7-2.4,2.6-5,4.9-7.7,7.2-2.3,1.9-4.5,3.9-6.9,5.7-3.3,2.5-6.5,5.2-9.8,7.6-4.6,3.4-9.2,6.8-13.9,10-3.6,2.4-7.1,4.9-10.7,7.3-.2.1-.4.2-.5.3-.8,1.2-2.2,1.5-3.2,2.2-4.6,3.2-8.7,6.8-12.7,10.7-2.2,2.1-4,4.5-5.4,7.1-2.8,5-4.8,10.4-6.6,15.8-1.8,5.2-4,10.3-7.2,14.8-1.1,1.5-2.6,2.6-3.8,3.9-.7.8-1.5,1.6-2.4,2.2-2,1.3-4,2.3-6.1,3.3-1,.5-2.2.6-3.3.7-.7,0-1.3,0-1.5-.9-.3-.9.3-1.3,1-1.6,1.5-.7,3-1.6,4.2-2.7,4-3.4,6.8-7.7,8.4-12.7,1.9-5.8,3.7-11.6,5.5-17.5,2.1-6.6,5-12.8,8.6-18.7,5.8-9.5,13.7-17.1,21.9-24.3,7.1-6.2,14.4-12.3,21.7-18.4,5.5-4.7,10.7-9.7,15.7-14.9,7.9-8.3,15-17.2,20.6-27.2,2-3.5,3.5-7.2,4.7-11,1.1-3.3,1.4-6.8,2-10.2-.2-1.4-.2-2.9,0-4.3-.1-.6-.2-1.3-.3-1.9-.6-2.8-1.5-5.5-3.2-7.9-2.1-2.9-5.1-4.4-7.9-6.2-.9-.6-2.1-.8-3.3-.5-.7.2-1.2.8-.4,1.4,1,.9,1.2,2.1,1.7,3.3,1.9,4.1,2.7,8.5,1.6,12.9-.7,2.8-1.7,5.6-2.7,8.4-2.6,6.9-5.9,13.5-10,19.6-2.6,4-5.4,7.8-8.3,11.6-1.2,1.5-2.4,3.1-3.7,4.6-1.3,1.5-2.4,3.3-4,4.5-1,.8-1.5,2.2-2.6,3.1-2,1.5-3.6,3.4-5.4,5.1-.9.8-1.4,2-2.5,2.6-2.7,1.5-4.4,4.1-6.8,5.9-2.6,2.1-5.3,4.3-7.7,6.7-.9.9-1.9,2-3.2,2.7-1.8,1-3.1,2.5-4.5,3.8-1.5,1.5-3.2,2.9-4.9,4.3-2.1,1.8-4.1,3.8-6.2,5.6-2.6,2.1-4.5,4.8-6.7,7.3-2.2,2.6-4.2,5.2-6,8.1-4.3,6.8-6.8,14.3-8.8,22-.5,2-.9,4.1-1.4,6.1-1.2,5-2.5,10-4.2,14.8-.8,2.4-1.7,4.7-3.8,6.4-1.5,1.2-2.6,1.3-4.1,0-1.4-1.3-2-3-2.4-4.8-2.1-10.1-.4-19.7,3.9-28.9,3.7-7.8,9-14.6,14.7-21.1,4.7-5.3,9.5-10.5,13.9-16.1,3.4-4.4,6.4-8.9,7.8-14.4-.1-.3,0-.6.1-.9,0-.1,0-.3,0-.4.9-7.8-1.2-14.2-8.4-18.3,0,0-.1,0-.2-.1-.3-.2-.5-.5-.4-.9.1-.4.5-.4.8-.5,1-.2,2,0,2.9.2,5.8,1.2,11.5.8,17.2-1,3.3-1,6.1-2.8,8-5.7,1.1-1.8,2.2-3.9.9-6.1-.4,0-.9-.2-1.3,0-.3.6-.5,1.4-1,1.8-2.4,1.6-4.9,3.2-7.9,3-.6.3-1.1.3-1.7,0-.6,0-1.1,0-1.7-.1-5.2-.8-10.2-2.1-15.2-3.6-7.3-2.2-14.5-5-22-6.7-5.6-1.3-11.4-2.1-17-.6-4.2,1.1-6.6,3.2-5.1,7.9,0,0-.1.2-.2.4-.6.2-1.2.1-1.9.1-.6.3-1.1.3-1.7,0-1.9.1-3.8.2-5.7.4-.9,0-1.4-.2-1.6-1.2-.5-1.8-1.3-3.6-2-5.3-.3-.8-.7-1-1.6-.8-1.2.3-2.3.7-3.6.6-.4.2-1.1.1-1.1.9.9,1.3,1.6,2.6,2,4.1,0,.2.2.4.3.5.5.3.5.8.5,1.2.3.5.4.9-.4.8-1.9.8-3.8,1.5-5.8,2.2-3.1,1-5.2,3.3-7.4,5.5-.7.8-1.2,1.9-1.6,2.9-.2.5-.1,1.2.2,1.6.4.5,1,0,1.4,0,2.1-.8,4.3-1.5,6.5-2.1,2.2-.7,4.4-1,6.6-1.4,1.3-.2,1.4,0,1.4,1.4,0,2.4-1.1,4.5-1.7,6.8-.2.7-.7.6-1.2.6-1.4,0-2.8.1-4.2.1-1.6,0-1.8.4-1.5,1.9.2,1,.9,1.7,1.8,1.9.8.2,1.5.7,2.3.7.5,0,.7.5.4.9-1.3,2-2.5,4.1-3.9,6.1-1,1.4-1.1,1.4-2.5.4-3.5-2.7-7.2-3.1-11.4-1.9-2.5.7-4.7,2.1-7.1,3.2-2,.9-4,2.1-6.3,1.2-.2,0-.7,0-.9.3.5,2,1.8,3.3,3.5,4.1,1.2.6,2.7.6,4.1.7,3.6.5,6.7-1,9.7-2.8,1.7-1,3.5-1.7,5.4-2.1.6-.1,1.2-.4,1.8.2.2,0,.3.1.5.2-.2,0-.3.2-.5.3-.7.7-1.2,1.6-2.1,2.2-3.6,2.2-7.4,4.1-10.7,6.7-1.5,1.1-2.3,2.9-3.5,4.4-.3.3-.1.7-.1,1-.1,1.6,0,3.1,0,4.7,0,.4,0,.8.3,1.2,1.8,2.7,3.9,4.3,7.6,3.4,0-.5-.2-.9-.3-1.4-.3-.4-.3-.8,0-1.3,0-1.3.7-2.4,1.6-3.3,1.3-1.3,2.7-2.5,4-3.8,1.8-1.9,2.8-4,2.1-6.7-.2-.8,0-1.2.6-1.6,1.1-.8,2.1-1.9,3.4-2.5.2-.3.4-.6.8-.5.3,0,.3.4.3.7.5,1.8,1.9,3.1,2.8,4.6,1.9,3.2,4.8,3.9,8,4.2,1.6.2,3.1-.2,4.6-1,3-1.8,5.5-4.1,6.6-7.5.2-.8.5-1.6,0-2.5-1.9,1.7-3.9,2.8-6.1,3.5-.6.4-1,.2-1.2-.4-3-3.2-6.5-5.3-11.1-4.9-.1,0-.3,0-.3,0-.1-.3,0-.5.3-.6,1.8-2.5,3.5-5.1,5.1-7.8.5-.9,1.3-1.4,2.4-1.5,3.8-.4,7.5-1.2,11.2-2,3-.7,6.1-1,9.2-.6,1.1.1,2.2.1,3.1.9.2,0,.4.2.6.3,1,.8,2.3.8,3.3,1.7,1.6,1.4,2.3,3.1,3,4.9.5,1.3,1.2,2.6,1.1,4.2-.1,1.5-.5,2.9-1,4.4-1.4,3.9-3.8,7.1-6.7,10-2.4,2.4-4.7,4.8-7.3,7-1.5,1.2-2.8,2.6-4.2,3.7-2.6,2-5.1,4.1-7.7,6-4.5,3.5-8.9,7.1-13.3,10.7-2.7,2.2-5.3,4.6-7.8,7-1.9,1.8-3.5,3.8-5.3,5.7-2,2.1-3.7,4.5-5.6,6.7-4.3,5.1-7.2,11-9.9,17.1-1.5,3.4-2.6,6.8-3.3,10.4-1,5-1.7,10-1.7,15.2,0,2.5.3,4.9.4,7.4.2.3.3.6.1.9ZM195.4,89.6c-.3.3-.7.5-1,.7-3.2,1.7-6.6,2.3-10.4,2.9.7-2.7,1.4-5,1.5-7.4,0-.6.3-.9.9-.9,2.7,0,5.4,0,8,.6.9.2,1.8.6,2.1,1.6.3,1.1-.4,1.9-1.1,2.6ZM209.6,82.4c-1.1.2-2.3.3-3.4.1-1.5-.2-2.4-1.1-2.7-2.6-.4-2.3.2-3,2.6-2.6,3.8.6,7.5,1.3,11.2,2.3.4.1.9.1,1,.7-.8.6-1.9.5-2.8.7-2,.5-4,.9-6,1.4ZM179.6,174.1c3.5-6.2,7.9-11.8,13.2-16.5.7-.7,1.6-1.2,2.4-1.8.2-.2.6-.2.8,0,.3.2.4.6.2,1-.2.4-.5.9-.7,1.3-5.4,8.5-9.1,17.6-10.8,27.5-1.8,10.4-.5,20.6,2.8,30.6,2.2,6.4,5.3,12.4,9.3,17.8,4.8,6.4,10.5,11.9,17.1,16.5,1.6,1.1,3.1,2.2,4.7,3.3.4.3.8.6,1.1,1,.4.4.2.8-.3.9-.4.1-.8,0-1.2-.1-7.8-2.6-15.3-5.9-22-10.9-11.3-8.4-19.1-19.1-22.2-32.9-.9-4-1.4-8-1.3-13.4-.1-7.8,2.5-16.2,7-24.1Z"/>
        <path class="cls-1" d="M202.4,391.4c3.2-.7,5.4-3.3,5.8-6.7.3-2.4-.6-4.1-2.5-5.4-1.6-1.1-3.5-1.6-5.4-1.9-3.2-.5-6.4-.4-9.5-.3-1.6,0-3.1.2-4.7,0-2.9-.3-3.7-1.8-2.2-4.3.3-.5.7-1.1,1.1-1.6,1.8-2.5,3.6-5.1,5.4-7.6,6.9-9.6,14-18.9,20.5-28.7,3.8-5.7,6.3-11.9,7.2-18.7.1-.9,0-1.8.5-2.8.8.7,1.4,1.2,2.1,1.7,2.2,1.8,4.6,3.3,7.2,4.5,1.1.5,2.3.9,3.7.5-.2-.5-.4-.8-.6-1.1-2.5-4-4.3-8.3-5.6-12.8-1.5-5.1-2.3-10.4-2.5-15.7,0-1.3-.5-1.7-1.7-1.9-1.8-.2-3.5-.6-5.2-1-6.7-1.6-13.1-4.2-19.3-7.1-.5-.2-1-.8-1.7-.5,0,.2-.2.4-.2.6-.5,6.9-1.1,13.7-3.5,20.4-1.1,3.2-2.1,6.4-3.2,9.5-.5,1.3-1.3,2.5-1,4.1,2.2,0,4.3-.5,6.3-1.3,3.1-1.4,5.6-3.6,8.3-5.5.1-.2.2-.4.4-.5.3-.2.5-.8.9-.3.2.2,0,.6-.3.9,0,1.2-1.1,2-1.1,3,0,1.3-.7,2.5-1.1,3.7-2.4,6.1-5,12.1-7.5,18.1-1.9,4.4-4.1,8.7-6.4,12.9-1.4,2.7-2.9,5.4-4.6,7.9-2.6,3.9-5,8-7.3,12.1-.8,1.3-1.5,2.6-2.3,3.9-2,3.4-4.5,5.3-8.8,4.8-.8,0-1.5-.3-2.3-.4-2.6-.4-4.9-1.6-7.4-2.4-3.5-1.1-6.9-1.4-10.3.1-2,.9-2.5,1.5-2.3,3.6,0,.3.2.7,0,1-.8.3-1.7,0-2.5,0-2.1,0-4.2.2-6.3.8-2.6.7-4.3,2.1-4.7,4.8.5.4.4.8.2,1.3.8,1.3.9,3.2,2.8,3.7,1.5-2.9,4.3-4.2,7.2-5.3,1.7-.6,3.4-1,5.1-.9.5,0,1,0,1,.7,0,0,.2.2.3.2-.1,0-.2,0-.3,0-.3.6-1,.8-1.5,1-2.6,1.2-3.9,3.2-4.2,6-.2,1.9.7,3.7,2.5,4.4.8.3,1.8.3,2.7.4.8,0,1.2-.1,1.1-1-.2-1.7.8-2.8,2-3.7,1.5-1.1,3.1-1.8,4.9-2.3,4.4-1.1,8.9-1.7,13.4-1.7.3-.2.6-.2.9,0,8.2-.6,16.4-.5,24.6.2,3.1.3,6.3.6,9.1,2.4,1.5,1,3.3,1.6,3.1,3.9Z"/>
        <path class="cls-1" d="M330.8,477.4c-.5.7-1.4.8-2,1.3-2.2,1.7-4.4,3.2-6.9,4.5-7.8,3.9-15.5,3.7-23.2.2-6.4-2.9-10.3-8.3-13-14.7-2.1-5-3-10.3-3.3-15.6-.3-4.4-.3-8.8.6-13.1-.2-.3,0-.6.1-.9.4-3.5,1.5-6.9,2.9-10.1,3.3-7.7,8.9-12.8,17-14.8,4.5-1.1,9-1.1,13.5.6,4.8,1.8,9,4.4,12.5,8.2.2.2.4.4.7.3,0,0,.2,0,.2-.1,0-5.2,0-10.3,0-15.5,0-.8-.4-1.1-1.1-1.3-2.2-.7-4.4-1.5-6.7-2-2.9-.7-5.9-.8-8.8-1.2-.7.2-1.5.2-2.2,0-.6,0-1.1,0-1.7,0-.4.2-.9.2-1.3,0-2.1.3-4.3.5-6.4.8-.3.2-.6.3-.9.2-.1,0-.3.1-.4.2-14.7,3.6-24.3,12.9-29.3,27-3.9,10.8-3.9,21.8-1.3,32.9,2,8.2,5.7,15.4,11.9,21.2,2.4,2.3,5.3,4,8,5.9,3.4,2.3,7.3,3.3,11.1,4,2.9.5,5.9.6,8.9.8.7-.2,1.5-.2,2.2,0,4.7-.3,9.2-1.1,13.8-2.1,1.8-.4,2.4-1.3,2.7-2.9.8-4.1,1.7-8.2,2.5-12.3,0-.4.3-.8-.3-1.2Z"/>
        <path class="cls-1" d="M299.1,248.9c-6.7-3.5-13.7-6-20.8-8.5-6.2-2.3-12.6-4.2-18.6-7.3-.5-.3-1-.4-1.6-.6-.5-.2-.8,0-1.2.2,0,.2,0,.3,0,.5,1.1.5,1.6,1.8,2.5,2.5,2.7,2.1,5.3,4.2,7.9,6.4,2.4,2,5.2,3.5,7.5,5.6,2.5,2.3,5.4,4,7.8,6.3,1.4,1.4,3,2.6,4.4,3.9,3.1,2.9,6.1,6,9,9.2,1.3,1.5,2.6,3.1,3.7,4.7,1.5,2.3,3.2,4.6,4.6,7,2.7,4.5,5.3,9,7.4,13.8,1.5,3.5,2.7,7,3.5,10.6.3,1.2.9,2.3,1.1,3.5.3,2.4.9,4.7,1.2,7.1.7,5.6.9,11.1-.1,16.7.2.3,0,.6-.1.9-.4,2.7-.8,5.4-1.9,8-.6,1.4-1.2,3.1-.3,4.9,1-1,2-1.8,2.6-2.9,1.2-2.2,2.6-4.3,3.8-6.5,2.1-3.9,4.1-7.8,5.5-12.1,1.6-4.7,2.9-9.4,3.7-14.3-.2-.3,0-.6.1-.9,0-1,0-2,.1-3,.7-9.9-.9-19.4-5.2-28.4-5.8-12.3-15.1-21.1-27-27.3Z"/>
        <path class="cls-1" d="M243.4,415.8c0-2.9-.2-5.8-.3-8.7,0-.9-.3-1.4-1.2-1.3-.3,0-.6,0-.8,0-12.9,0-25.8,0-38.7,0-.5,0-1.1-.2-1.6.2-.2.8.2,1.4.4,2.1,1.4,3.6,2.8,7.1,3,11,.1,2.5.2,5,.2,7.4,0,16.9,0,33.9,0,50.8,0,4.2-.2,8.4-1.9,12.4-.4.8-1.1,1.8-.9,3h17.7c0-.3,0-.5,0-.7-1.5-3.6-1.9-7.4-2.2-11.2-.5-6.6-.2-13.2-.3-19.8,0-2.3,0-4.7,0-7,0-2,0-2,2.1-2,2,0,4,0,6,0,3,0,5.9.7,8.7,1.9.8.4,1.7.7,2.8,1.2v-16.1c-.7,0-1.1.4-1.6.7-2.1,1.2-4.3,1.8-6.7,1.8-3.3,0-6.5,0-9.8,0-1.1,0-1.5-.3-1.5-1.4,0-7.8,0-15.6,0-23.4,0-1.1.4-1.5,1.5-1.5,4,0,8.1,0,12.1.2,4.2.2,8.1,1.3,11.6,3.6.4.3.8.8,1.4.5,0-1.3,0-2.6,0-3.9Z"/>
        <path class="cls-1" d="M163.9,477c-.7.3-1.3.7-2,1-3.4,1.7-6.8,3.3-10.6,3.7-5.9.6-11.7.6-17.6.4-.3,0-.5-.2-.6-.5,0-.5,0-1,0-1.5,0-18.1,0-36.2,0-54.3,0-1-.2-2,.2-2.9-.2-5.7.5-11.4,2.3-16.9h-18c0,1.1,0,2.2.6,3,1,1.6,1.2,3.3,1.5,5,.2.3.3.6.1.9.5,2.3.5,4.6.5,7,0,18,0,36,0,54,0,2.4,0,4.8-.3,7.2-.2,2.1-.4,4.3-1.5,6.3-.6,1-1.1,2.2-.9,3.6.2,0,.4.1.6.1,13.6,0,27.2,0,40.8,0,0,0,.1,0,.2,0,.7,0,1-.2,1.3-1,.7-1.9,1-3.8,1.6-5.7.8-2.8,1.7-5.6,2.5-8.4.2-.8-.1-1.1-.9-.8Z"/>
        <path class="cls-1" d="M376.5,69.5c-.9-.4-1.4.3-1.9.8-.2.3-.5.5-.7.8-1.7,2.2-3.4,4.4-5.3,6.5-.5.6-.9,1.4-1.5,2-2,2.2-4.2,4.2-6,6.5-1.4,1.7-2.9,3.3-4.4,4.9-2.7,2.8-5.7,5.3-8.5,8-2,1.9-4.2,3.8-6.3,5.6-3,2.6-5.9,5.3-9.2,7.6-1.6,1.1-3,2.4-4.5,3.6-3.7,2.7-7.3,5.4-11,8-.2.1-.4.2-.5.3-.3.9-1.2.8-1.8,1.3-6.1,4.2-12.2,8.2-18.6,11.9-1.7,1-1.7,1.1-.9,3,0,.1.1.2.2.4,2.2,4,.5,7.6-1.2,11.1-.2.3-.8.5-.4,1,.3.4.7.2,1.1,0,3.9-2.3,7.8-4.6,11.6-6.9,4.9-3,9.8-6,14.4-9.4,4.6-3.3,9.2-6.7,13.6-10.2,3.3-2.6,6.6-5.4,9.7-8.3,6.6-6,13-12.2,18.5-19.3,5-6.5,9.4-13.4,12.5-20.9.8-2,1.6-4,1.9-6.2.1-.8,0-1.6-.8-2Z"/>
        <path class="cls-1" d="M320.1,76c-4,5.5-7.9,10.9-12.7,15.7-.9.9-1.9,1.9-2.6,3.1-.2.4-.7.7-1.1,1-2.1,1.5-3.9,3.5-5.7,5.4-.7.7-1.3,1.4-2.2,2-1.9,1.2-3.3,3-5,4.4-1.5,1.4-3.1,2.5-4.6,3.9-1.2,1.1-2.6,2.1-3.8,3.2-1.2,1-2.4,2.1-3.6,3.1-2.1,1.6-4,3.4-6.1,5-1.9,1.5-3.6,3.2-5.6,4.6-.5.3-.9.7-1.2,1.2-.3.5-.7.9-1.2,1.2-1.5.8-2.6,2-3.6,3.2-.4.4-.8.8-1.2,1.1-2.6,2-4.9,4.3-6.7,7-.4.6-.9,1.4-.2,2.1.7.7,1.6.4,2.3-.2.2-.1.3-.3.5-.4,5.7-4.6,11.4-9.1,17.5-13.2,4-2.7,7.8-5.6,11.7-8.3,3.1-2.1,6.1-4.3,9.1-6.6,4.6-3.7,9.1-7.5,13.5-11.6,5.8-5.4,11.2-11.2,16.1-17.4,4.4-5.6,8.3-11.7,11.7-18,2.8-5.1,4.7-10.5,4.7-17,.2-4.2-1.3-8.3-3.8-12.1-.3-.4-.6-.8-1-1.1-.6-.4-1.2-.2-1.3.5-.1.7,0,1.4,0,2.1.2,2,0,3.9-.4,5.9-.4,2.1-1,4.2-1.7,6.3-1.4,4.1-2.8,8.1-4.7,11.9-2.1,4.1-4.5,8.2-7.2,12Z"/>
        <path class="cls-1" d="M359.2,111.8c-.7-.4-1.2,0-1.7.4-.2.1-.3.5-.5.7-2.6,2.7-5.2,5.4-8,7.9-1.3,1.2-2.8,2.1-4,3.5-1.1,1.3-2.5,2.5-3.9,3.5-2.9,2.2-5.6,4.6-8.5,6.7-2.2,1.6-4.2,3.4-6.4,4.8-4.2,2.7-8.3,5.6-12.6,8-3.9,2.2-7.6,4.6-11.6,6.6-2.1,1.1-4.3,2.1-6.4,3.2-.7.4-1.6.8-.6,1.9.3.3.3,1.1.3,1.6.2,4-1.2,7.5-3.5,10.7-.2.3-.9.6-.4,1.2.4.5.7.1,1.1,0,2.5-1.1,5-2.2,7.4-3.4,7.2-3.5,14.2-7.3,20.9-11.6,5.2-3.4,10.2-7,14.9-11,4.6-3.9,9-8.2,12.9-12.9,3.6-4.2,6.7-8.7,9-13.8,1-2,1.7-4.2,1.9-6.3,0-.7.2-1.3-.5-1.7Z"/>
        <path class="cls-1" d="M286.8,190.4c-.3.3-.7.5-.6,1.3.7-.1,1.5-.2,2.2-.4,3.8-.9,7.6-2,11.2-3.4,4.3-1.7,8.7-3.5,12.7-5.9,5.9-3.5,11.7-7.3,17-11.8,5.5-4.7,10.5-9.8,14.5-16,1.5-2.3,2.9-4.7,3.5-7.4.1-.5.2-1.2-.3-1.6-.5-.3-1.1-.3-1.5.2-.2.2-.5.2-.7.4-2.4,2-4.5,4.4-7.1,6.1-.2.1-.4.2-.5.3-.3,1-1.3.9-2,1.4-6.2,4.9-13,9-20,12.7-6.9,3.6-14,6.7-21.3,9.3-1.1.4-1.4.9-1.4,2,0,1.4,0,2.7-.5,4-1.3,3.2-2.5,6.4-5.1,8.7Z"/>
        <path class="cls-1" d="M334.9,175.2c-.4-.3-.8-.4-1.3,0-.7.5-1.6.8-2.3,1.4-.7.7-1.5,1.5-2.4,2-2.8,1.4-5.4,3.2-8.1,4.7-7.8,4.4-16.1,7.8-24.7,10.3-3.1.9-6.1,1.7-9.3,2.2-1.6.3-1.6.3-1.6,1.9,0,1.7-.5,3.1-1.2,4.6-1,2.1-2.4,3.9-4.2,5.4-1.8,1.6-3.8,2.7-5.9,4.3,1.7.5,3,0,4.3,0,3.3-.3,6.5-1.2,9.8-1.9,2.5-.6,5-1.8,7.5-2.8,8.3-3.2,15.9-7.3,22.9-12.7,5.3-4.1,10.3-8.6,14.3-14.1.9-1.2,1.6-2.5,2.3-3.8.3-.5.2-1.1-.3-1.5Z"/>
        <path class="cls-1" d="M360.6,69.9c-.7,1-1,2.2-1.9,3-1.9,2-3.2,4.4-5,6.5-2.3,2.7-4.1,5.8-6.6,8.3-2.2,2.2-4,4.9-6.5,6.9-1.9,1.5-3.4,3.5-5,5.5-1.5,1.8-3.5,3.1-4.7,5.1-.2.4-1,.6-.6,1.2.3.5,1,.5,1.5.5.5,0,.9-.5,1.2-.8,1.9-1.6,3.8-3.1,5.7-4.7,6-5.1,11.8-10.4,17.3-16,7.6-7.6,14.7-15.7,20.7-24.6,5.3-7.7,6.6-16,4.5-25-.1-.6-.4-1.2-.6-1.8-.4-.9-.9-.9-1.6,0-.1.2-.3.3-.4.5,0,.2-.2.4-.3.6-.7,1.3-.9,2.8-1.4,4.1-2.5,5.7-5.1,11.4-8.2,16.8-2.7,4.7-5.2,9.5-8.3,14Z"/>
        <path class="cls-1" d="M292,217c.7,0,1.4,0,2.1,0,4.3,0,8.6.2,12.9-.4,1.1-.2,2-.5,2.8-1.5,1.5-1.8,3-3.6,4.4-5.4,1.3-1.7,2.5-3.6,3.7-5.4.3-.4.4-1,0-1.4-.4-.4-.8-.3-1.3,0-3.5,2-7.1,3.7-10.7,5.4-4.8,2.3-9.8,3.8-14.9,5.2-2.2.6-4.6.9-6.9,1.3-.4,0-.9,0-.9.8,2.6.9,5.4,1,8.1,1.4.3-.2.6-.1.9,0Z"/>
        <path class="cls-1" d="M245.2,482.4c-2.8,3-2.8,8.4,0,11.5,2.3,2.5,5.6,2.7,8.1.3,1.7-1.6,2.5-3.7,2.5-6.1,0-2.3-.7-4.3-2.4-5.9-2.5-2.5-5.9-2.4-8.2.2Z"/>
        <path class="cls-1" d="M181.1,480.4c-2.4,0-4.2,1.2-5.4,3.3-.9,1.5-.7,3.1-.7,4.7,0,1.3,0,2.6.6,3.9,1.2,2.1,2.8,3.4,5.3,3.6.3-.2.6-.2.9,0,1.2-.3,2.3-.6,3.1-1.5,2.8-3,3.4-6.9,1.4-10.5-1.1-2-2.8-3.4-5.3-3.3Z"/>
        <path class="cls-1" d="M345.2,482.7c-.7,1-1.1,2-1.3,3.2-.2,1.7-.1,3.4,0,5.1.2,2.2,2.6,4.2,5.4,4.8.3-.1.6,0,.9,0,1.7-.3,3.2-1,4.2-2.4,2.4-3.4,2.5-7.3-.1-10.8-2.3-3.1-7-3.1-9.2,0Z"/>
      </g>
    </g>
  </g>
</svg>